<?xml version="1.0" encoding="utf8"?>
<!DOCTYPE svg
  PUBLIC '-//W3C//DTD SVG 1.1//EN'
  'http://www.w3.org/Graphics/SVG/1.1/DTD/svg11.dtd'>
<svg encoding="UTF-8" version="1.1" xmlns="http://www.w3.org/2000/svg">
	<g data-name="Layer 58 sopr" id="Layer_58_sopr-01">
		<line data-name="spacer" id="spacer-17" style="fill:none;stroke:#fff;stroke-miterlimit:10;stroke-width:0.200000002980232px" x1="78.13124" x2="78.13124" y1="916.16461" y2="901.99072"/>
		<g id="player-58-sopr">
			<line style="fill:none;stroke:#58595b;stroke-miterlimit:10;stroke-width:0.200000002980232px" x1="78.03124" x2="809.47177" y1="910.31494" y2="910.31494"/>
			<line style="fill:none;stroke:#58595b;stroke-miterlimit:10;stroke-width:0.200000002980232px" x1="78.03124" x2="809.47177" y1="911.74712" y2="911.74712"/>
			<line style="fill:none;stroke:#58595b;stroke-miterlimit:10;stroke-width:0.200000002980232px" x1="78.03124" x2="809.47177" y1="913.1793" y2="913.1793"/>
			<line style="fill:none;stroke:#58595b;stroke-miterlimit:10;stroke-width:0.200000002980232px" x1="78.03124" x2="809.47177" y1="914.61148" y2="914.61148"/>
			<line style="fill:none;stroke:#58595b;stroke-miterlimit:10;stroke-width:0.200000002980232px" x1="78.03124" x2="809.47177" y1="916.04366" y2="916.04366"/>
		</g>
	</g>
	<g data-name="Layer 58 sopr" id="Layer_58_sopr-02">
		<line data-name="spacer" id="spacer-17" style="fill:none;stroke:#fff;stroke-miterlimit:10;stroke-width:0.200000002980232px" x1="78.13124" x2="78.13124" y1="916.16461" y2="901.99072"/>
		<g id="player-58-sopr">
			<line style="fill:none;stroke:#58595b;stroke-miterlimit:10;stroke-width:0.200000002980232px" x1="78.03124" x2="809.47177" y1="910.31494" y2="910.31494"/>
			<line style="fill:none;stroke:#58595b;stroke-miterlimit:10;stroke-width:0.200000002980232px" x1="78.03124" x2="809.47177" y1="911.74712" y2="911.74712"/>
			<line style="fill:none;stroke:#58595b;stroke-miterlimit:10;stroke-width:0.200000002980232px" x1="78.03124" x2="809.47177" y1="913.1793" y2="913.1793"/>
			<line style="fill:none;stroke:#58595b;stroke-miterlimit:10;stroke-width:0.200000002980232px" x1="78.03124" x2="809.47177" y1="914.61148" y2="914.61148"/>
			<line style="fill:none;stroke:#58595b;stroke-miterlimit:10;stroke-width:0.200000002980232px" x1="78.03124" x2="809.47177" y1="916.04366" y2="916.04366"/>
		</g>
	</g>
	<g data-name="Layer 58 sopr" id="Layer_58_sopr-03">
		<line data-name="spacer" id="spacer-17" style="fill:none;stroke:#fff;stroke-miterlimit:10;stroke-width:0.200000002980232px" x1="78.13124" x2="78.13124" y1="916.16461" y2="901.99072"/>
		<g id="player-58-sopr">
			<line style="fill:none;stroke:#58595b;stroke-miterlimit:10;stroke-width:0.200000002980232px" x1="78.03124" x2="809.47177" y1="910.31494" y2="910.31494"/>
			<line style="fill:none;stroke:#58595b;stroke-miterlimit:10;stroke-width:0.200000002980232px" x1="78.03124" x2="809.47177" y1="911.74712" y2="911.74712"/>
			<line style="fill:none;stroke:#58595b;stroke-miterlimit:10;stroke-width:0.200000002980232px" x1="78.03124" x2="809.47177" y1="913.1793" y2="913.1793"/>
			<line style="fill:none;stroke:#58595b;stroke-miterlimit:10;stroke-width:0.200000002980232px" x1="78.03124" x2="809.47177" y1="914.61148" y2="914.61148"/>
			<line style="fill:none;stroke:#58595b;stroke-miterlimit:10;stroke-width:0.200000002980232px" x1="78.03124" x2="809.47177" y1="916.04366" y2="916.04366"/>
		</g>
	</g>
	<g data-name="Layer 58 sopr" id="Layer_58_sopr-04">
		<line data-name="spacer" id="spacer-17" style="fill:none;stroke:#fff;stroke-miterlimit:10;stroke-width:0.200000002980232px" x1="78.13124" x2="78.13124" y1="916.16461" y2="901.99072"/>
		<g id="player-58-sopr">
			<line style="fill:none;stroke:#58595b;stroke-miterlimit:10;stroke-width:0.200000002980232px" x1="78.03124" x2="809.47177" y1="910.31494" y2="910.31494"/>
			<line style="fill:none;stroke:#58595b;stroke-miterlimit:10;stroke-width:0.200000002980232px" x1="78.03124" x2="809.47177" y1="911.74712" y2="911.74712"/>
			<line style="fill:none;stroke:#58595b;stroke-miterlimit:10;stroke-width:0.200000002980232px" x1="78.03124" x2="809.47177" y1="913.1793" y2="913.1793"/>
			<line style="fill:none;stroke:#58595b;stroke-miterlimit:10;stroke-width:0.200000002980232px" x1="78.03124" x2="809.47177" y1="914.61148" y2="914.61148"/>
			<line style="fill:none;stroke:#58595b;stroke-miterlimit:10;stroke-width:0.200000002980232px" x1="78.03124" x2="809.47177" y1="916.04366" y2="916.04366"/>
		</g>
	</g>
	<g data-name="Layer 58 sopr" id="Layer_58_sopr-05">
		<line data-name="spacer" id="spacer-17" style="fill:none;stroke:#fff;stroke-miterlimit:10;stroke-width:0.200000002980232px" x1="78.13124" x2="78.13124" y1="916.16461" y2="901.99072"/>
		<g id="player-58-sopr">
			<line style="fill:none;stroke:#58595b;stroke-miterlimit:10;stroke-width:0.200000002980232px" x1="78.03124" x2="809.47177" y1="910.31494" y2="910.31494"/>
			<line style="fill:none;stroke:#58595b;stroke-miterlimit:10;stroke-width:0.200000002980232px" x1="78.03124" x2="809.47177" y1="911.74712" y2="911.74712"/>
			<line style="fill:none;stroke:#58595b;stroke-miterlimit:10;stroke-width:0.200000002980232px" x1="78.03124" x2="809.47177" y1="913.1793" y2="913.1793"/>
			<line style="fill:none;stroke:#58595b;stroke-miterlimit:10;stroke-width:0.200000002980232px" x1="78.03124" x2="809.47177" y1="914.61148" y2="914.61148"/>
			<line style="fill:none;stroke:#58595b;stroke-miterlimit:10;stroke-width:0.200000002980232px" x1="78.03124" x2="809.47177" y1="916.04366" y2="916.04366"/>
		</g>
		<text style="font-size:4px;fill:#231f20;font-family:Bravura, Bravura" transform="translate(99.14575 907.49053)"></text>
		<text style="font-size:4px;fill:#231f20;font-family:Bravura, Bravura" transform="translate(219.51831 907.49053)"></text>
		<line style="fill:none;stroke:#231f20;stroke-miterlimit:10;stroke-width:0.200000002980232px" x1="100.71146" x2="100.71146" y1="909.63464" y2="916.18636"/>
		<line style="fill:none;stroke:#231f20;stroke-miterlimit:10;stroke-width:0.200000002980232px" x1="221.18145" x2="221.18145" y1="909.63464" y2="916.18636"/>
		<line style="fill:none;stroke:#231f20;stroke-miterlimit:10;stroke-width:0.5px" x1="221.16458" x2="223.72332" y1="909.36264" y2="909.36264"/>
		<line style="fill:none;stroke:#231f20;stroke-miterlimit:10;stroke-width:0.5px" x1="221.05625" x2="223.61499" y1="910.15431" y2="910.15431"/>
		<circle cx="221.18145" cy="908.42326" r="0.19822" style="fill:#231f20"/>
		<text style="font-size:2px;fill:#231f20;font-family:CourierNewPS-BoldItalicMT, Courier New;font-weight:700;font-style:italic" transform="translate(84.97067 909.63506)">whispered</text>
		<text style="font-size:3px;fill:#231f20;font-family:CourierNewPS-BoldItalicMT, Courier New;font-weight:700;font-style:italic" transform="translate(98.4379 918.80132)">Shh</text>
		<line style="fill:none;stroke:#231f20;stroke-miterlimit:10;stroke-width:0.400000005960465px" x1="105.7478" x2="220.98323" y1="917.94935" y2="917.94935"/>
	</g>
	<g data-name="Layer 58 sopr" id="Layer_58_sopr-06">
		<line data-name="spacer" id="spacer-17" style="fill:none;stroke:#fff;stroke-miterlimit:10;stroke-width:0.200000002980232px" x1="78.13124" x2="78.13124" y1="916.16461" y2="901.99072"/>
		<g id="player-58-sopr">
			<line style="fill:none;stroke:#58595b;stroke-miterlimit:10;stroke-width:0.200000002980232px" x1="78.03124" x2="809.47177" y1="910.31494" y2="910.31494"/>
			<line style="fill:none;stroke:#58595b;stroke-miterlimit:10;stroke-width:0.200000002980232px" x1="78.03124" x2="809.47177" y1="911.74712" y2="911.74712"/>
			<line style="fill:none;stroke:#58595b;stroke-miterlimit:10;stroke-width:0.200000002980232px" x1="78.03124" x2="809.47177" y1="913.1793" y2="913.1793"/>
			<line style="fill:none;stroke:#58595b;stroke-miterlimit:10;stroke-width:0.200000002980232px" x1="78.03124" x2="809.47177" y1="914.61148" y2="914.61148"/>
			<line style="fill:none;stroke:#58595b;stroke-miterlimit:10;stroke-width:0.200000002980232px" x1="78.03124" x2="809.47177" y1="916.04366" y2="916.04366"/>
		</g>
	</g>
	<g data-name="Layer 58 sopr" id="Layer_58_sopr-07">
		<line data-name="spacer" id="spacer-17" style="fill:none;stroke:#fff;stroke-miterlimit:10;stroke-width:0.200000002980232px" x1="78.13124" x2="78.13124" y1="916.16461" y2="901.99072"/>
		<g id="player-58-sopr">
			<line style="fill:none;stroke:#58595b;stroke-miterlimit:10;stroke-width:0.200000002980232px" x1="78.03124" x2="809.47177" y1="910.31494" y2="910.31494"/>
			<line style="fill:none;stroke:#58595b;stroke-miterlimit:10;stroke-width:0.200000002980232px" x1="78.03124" x2="809.47177" y1="911.74712" y2="911.74712"/>
			<line style="fill:none;stroke:#58595b;stroke-miterlimit:10;stroke-width:0.200000002980232px" x1="78.03124" x2="809.47177" y1="913.1793" y2="913.1793"/>
			<line style="fill:none;stroke:#58595b;stroke-miterlimit:10;stroke-width:0.200000002980232px" x1="78.03124" x2="809.47177" y1="914.61148" y2="914.61148"/>
			<line style="fill:none;stroke:#58595b;stroke-miterlimit:10;stroke-width:0.200000002980232px" x1="78.03124" x2="809.47177" y1="916.04366" y2="916.04366"/>
		</g>
	</g>
	<g data-name="Layer 58 sopr" id="Layer_58_sopr-08">
		<line data-name="spacer" id="spacer-17" style="fill:none;stroke:#fff;stroke-miterlimit:10;stroke-width:0.200000002980232px" x1="78.13124" x2="78.13124" y1="916.16461" y2="901.99072"/>
		<g id="player-58-sopr">
			<line style="fill:none;stroke:#58595b;stroke-miterlimit:10;stroke-width:0.200000002980232px" x1="78.03124" x2="809.47177" y1="910.31494" y2="910.31494"/>
			<line style="fill:none;stroke:#58595b;stroke-miterlimit:10;stroke-width:0.200000002980232px" x1="78.03124" x2="809.47177" y1="911.74712" y2="911.74712"/>
			<line style="fill:none;stroke:#58595b;stroke-miterlimit:10;stroke-width:0.200000002980232px" x1="78.03124" x2="809.47177" y1="913.1793" y2="913.1793"/>
			<line style="fill:none;stroke:#58595b;stroke-miterlimit:10;stroke-width:0.200000002980232px" x1="78.03124" x2="809.47177" y1="914.61148" y2="914.61148"/>
			<line style="fill:none;stroke:#58595b;stroke-miterlimit:10;stroke-width:0.200000002980232px" x1="78.03124" x2="809.47177" y1="916.04366" y2="916.04366"/>
		</g>
	</g>
	<g data-name="Layer 58 sopr" id="Layer_58_sopr-09">
		<line data-name="spacer" id="spacer-17" style="fill:none;stroke:#fff;stroke-miterlimit:10;stroke-width:0.200000002980232px" x1="78.13124" x2="78.13124" y1="916.16461" y2="901.99072"/>
		<g id="player-58-sopr">
			<line style="fill:none;stroke:#58595b;stroke-miterlimit:10;stroke-width:0.200000002980232px" x1="78.03124" x2="809.47177" y1="910.31494" y2="910.31494"/>
			<line style="fill:none;stroke:#58595b;stroke-miterlimit:10;stroke-width:0.200000002980232px" x1="78.03124" x2="809.47177" y1="911.74712" y2="911.74712"/>
			<line style="fill:none;stroke:#58595b;stroke-miterlimit:10;stroke-width:0.200000002980232px" x1="78.03124" x2="809.47177" y1="913.1793" y2="913.1793"/>
			<line style="fill:none;stroke:#58595b;stroke-miterlimit:10;stroke-width:0.200000002980232px" x1="78.03124" x2="809.47177" y1="914.61148" y2="914.61148"/>
			<line style="fill:none;stroke:#58595b;stroke-miterlimit:10;stroke-width:0.200000002980232px" x1="78.03124" x2="809.47177" y1="916.04366" y2="916.04366"/>
		</g>
	</g>
	<g data-name="Layer 58 sopr" id="Layer_58_sopr-10">
		<line data-name="spacer" id="spacer-17" style="fill:none;stroke:#fff;stroke-miterlimit:10;stroke-width:0.200000002980232px" x1="78.13124" x2="78.13124" y1="916.16461" y2="901.99072"/>
		<g id="player-58-sopr">
			<line style="fill:none;stroke:#58595b;stroke-miterlimit:10;stroke-width:0.200000002980232px" x1="78.03124" x2="809.47177" y1="910.31494" y2="910.31494"/>
			<line style="fill:none;stroke:#58595b;stroke-miterlimit:10;stroke-width:0.200000002980232px" x1="78.03124" x2="809.47177" y1="911.74712" y2="911.74712"/>
			<line style="fill:none;stroke:#58595b;stroke-miterlimit:10;stroke-width:0.200000002980232px" x1="78.03124" x2="809.47177" y1="913.1793" y2="913.1793"/>
			<line style="fill:none;stroke:#58595b;stroke-miterlimit:10;stroke-width:0.200000002980232px" x1="78.03124" x2="809.47177" y1="914.61148" y2="914.61148"/>
			<line style="fill:none;stroke:#58595b;stroke-miterlimit:10;stroke-width:0.200000002980232px" x1="78.03124" x2="809.47177" y1="916.04366" y2="916.04366"/>
		</g>
	</g>
	<g data-name="Layer 58 sopr" id="Layer_58_sopr-11">
		<line data-name="spacer" id="spacer-17" style="fill:none;stroke:#fff;stroke-miterlimit:10;stroke-width:0.200000002980232px" x1="78.13124" x2="78.13124" y1="916.16461" y2="901.99072"/>
		<g id="player-58-sopr">
			<line style="fill:none;stroke:#58595b;stroke-miterlimit:10;stroke-width:0.200000002980232px" x1="78.03124" x2="809.47177" y1="910.31494" y2="910.31494"/>
			<line style="fill:none;stroke:#58595b;stroke-miterlimit:10;stroke-width:0.200000002980232px" x1="78.03124" x2="809.47177" y1="911.74712" y2="911.74712"/>
			<line style="fill:none;stroke:#58595b;stroke-miterlimit:10;stroke-width:0.200000002980232px" x1="78.03124" x2="809.47177" y1="913.1793" y2="913.1793"/>
			<line style="fill:none;stroke:#58595b;stroke-miterlimit:10;stroke-width:0.200000002980232px" x1="78.03124" x2="809.47177" y1="914.61148" y2="914.61148"/>
			<line style="fill:none;stroke:#58595b;stroke-miterlimit:10;stroke-width:0.200000002980232px" x1="78.03124" x2="809.47177" y1="916.04366" y2="916.04366"/>
		</g>
	</g>
	<g data-name="Layer 58 sopr" id="Layer_58_sopr-12">
		<line data-name="spacer" id="spacer-17" style="fill:none;stroke:#fff;stroke-miterlimit:10;stroke-width:0.200000002980232px" x1="78.13124" x2="78.13124" y1="916.16461" y2="901.99072"/>
		<g id="player-58-sopr">
			<line style="fill:none;stroke:#58595b;stroke-miterlimit:10;stroke-width:0.200000002980232px" x1="78.03124" x2="809.47177" y1="910.31494" y2="910.31494"/>
			<line style="fill:none;stroke:#58595b;stroke-miterlimit:10;stroke-width:0.200000002980232px" x1="78.03124" x2="809.47177" y1="911.74712" y2="911.74712"/>
			<line style="fill:none;stroke:#58595b;stroke-miterlimit:10;stroke-width:0.200000002980232px" x1="78.03124" x2="809.47177" y1="913.1793" y2="913.1793"/>
			<line style="fill:none;stroke:#58595b;stroke-miterlimit:10;stroke-width:0.200000002980232px" x1="78.03124" x2="809.47177" y1="914.61148" y2="914.61148"/>
			<line style="fill:none;stroke:#58595b;stroke-miterlimit:10;stroke-width:0.200000002980232px" x1="78.03124" x2="809.47177" y1="916.04366" y2="916.04366"/>
		</g>
	</g>
	<g data-name="Layer 58 sopr" id="Layer_58_sopr-13">
		<line data-name="spacer" id="spacer-17" style="fill:none;stroke:#fff;stroke-miterlimit:10;stroke-width:0.200000002980232px" x1="78.13124" x2="78.13124" y1="916.16461" y2="901.99072"/>
		<g id="player-58-sopr">
			<line style="fill:none;stroke:#58595b;stroke-miterlimit:10;stroke-width:0.200000002980232px" x1="78.03124" x2="809.47177" y1="910.31494" y2="910.31494"/>
			<line style="fill:none;stroke:#58595b;stroke-miterlimit:10;stroke-width:0.200000002980232px" x1="78.03124" x2="809.47177" y1="911.74712" y2="911.74712"/>
			<line style="fill:none;stroke:#58595b;stroke-miterlimit:10;stroke-width:0.200000002980232px" x1="78.03124" x2="809.47177" y1="913.1793" y2="913.1793"/>
			<line style="fill:none;stroke:#58595b;stroke-miterlimit:10;stroke-width:0.200000002980232px" x1="78.03124" x2="809.47177" y1="914.61148" y2="914.61148"/>
			<line style="fill:none;stroke:#58595b;stroke-miterlimit:10;stroke-width:0.200000002980232px" x1="78.03124" x2="809.47177" y1="916.04366" y2="916.04366"/>
		</g>
	</g>
	<g data-name="Layer 58 sopr" id="Layer_58_sopr-14">
		<line data-name="spacer" id="spacer-17" style="fill:none;stroke:#fff;stroke-miterlimit:10;stroke-width:0.200000002980232px" x1="78.13124" x2="78.13124" y1="916.16461" y2="901.99072"/>
		<g id="player-58-sopr">
			<line style="fill:none;stroke:#58595b;stroke-miterlimit:10;stroke-width:0.200000002980232px" x1="78.03124" x2="809.47177" y1="910.31494" y2="910.31494"/>
			<line style="fill:none;stroke:#58595b;stroke-miterlimit:10;stroke-width:0.200000002980232px" x1="78.03124" x2="809.47177" y1="911.74712" y2="911.74712"/>
			<line style="fill:none;stroke:#58595b;stroke-miterlimit:10;stroke-width:0.200000002980232px" x1="78.03124" x2="809.47177" y1="913.1793" y2="913.1793"/>
			<line style="fill:none;stroke:#58595b;stroke-miterlimit:10;stroke-width:0.200000002980232px" x1="78.03124" x2="809.47177" y1="914.61148" y2="914.61148"/>
			<line style="fill:none;stroke:#58595b;stroke-miterlimit:10;stroke-width:0.200000002980232px" x1="78.03124" x2="809.47177" y1="916.04366" y2="916.04366"/>
		</g>
	</g>
	<g data-name="Layer 58 sopr" id="Layer_58_sopr-15">
		<line data-name="spacer" id="spacer-17" style="fill:none;stroke:#fff;stroke-miterlimit:10;stroke-width:0.200000002980232px" x1="78.13124" x2="78.13124" y1="916.16461" y2="901.99072"/>
		<g id="player-58-sopr">
			<line style="fill:none;stroke:#58595b;stroke-miterlimit:10;stroke-width:0.200000002980232px" x1="78.03124" x2="809.47177" y1="910.31494" y2="910.31494"/>
			<line style="fill:none;stroke:#58595b;stroke-miterlimit:10;stroke-width:0.200000002980232px" x1="78.03124" x2="809.47177" y1="911.74712" y2="911.74712"/>
			<line style="fill:none;stroke:#58595b;stroke-miterlimit:10;stroke-width:0.200000002980232px" x1="78.03124" x2="809.47177" y1="913.1793" y2="913.1793"/>
			<line style="fill:none;stroke:#58595b;stroke-miterlimit:10;stroke-width:0.200000002980232px" x1="78.03124" x2="809.47177" y1="914.61148" y2="914.61148"/>
			<line style="fill:none;stroke:#58595b;stroke-miterlimit:10;stroke-width:0.200000002980232px" x1="78.03124" x2="809.47177" y1="916.04366" y2="916.04366"/>
		</g>
		<text style="font-size:4px;fill:#231f20;font-family:CourierNewPS-BoldItalicMT, Courier New;font-weight:700;font-style:italic" transform="translate(82.40173 918.91991)">ww(u)</text>
		<text style="font-size:4px;fill:#231f20;font-family:CourierNewPS-BoldItalicMT, Courier New;font-weight:700;font-style:italic" transform="translate(133.65173 918.91991)">u</text>
		<text style="font-size:4px;fill:#231f20;font-family:CourierNewPS-ItalicMT, Courier New;font-style:italic" transform="translate(79.45447 909.00395)">(12”)</text>
		<text style="font-size:4px;fill:#231f20;font-family:CourierNewPS-ItalicMT, Courier New;font-style:italic" transform="translate(464.37659 909.00395)">(12”)</text>
		<text style="font-size:4px;fill:#231f20;font-family:CourierNewPS-BoldItalicMT, Courier New;font-weight:700;font-style:italic" transform="translate(185.94275 918.91991)">o</text>
		<text style="font-size:4px;fill:#231f20;font-family:CourierNewPS-BoldItalicMT, Courier New;font-weight:700;font-style:italic" transform="translate(140.81067 921.70525)">(o)</text>
		<text style="font-size:4px;fill:#231f20;font-family:CourierNewPS-BoldItalicMT, Courier New;font-weight:700;font-style:italic" transform="translate(192.34985 921.80528)">(a)</text>
		<text style="font-size:4px;fill:#231f20;font-family:CourierNewPS-BoldItalicMT, Courier New;font-weight:700;font-style:italic" transform="translate(243.44275 918.9019)">a</text>
		<circle cx="85.1165" cy="913.94934" r="0.48595" style="fill:none;stroke:#231f20;stroke-miterlimit:10;stroke-width:0.200000002980232px"/>
		<line style="fill:none;stroke:#231f20;stroke-miterlimit:10;stroke-width:0.25px" x1="94.52042" x2="132.43667" y1="917.82494" y2="917.82494"/>
		<polygon points="131.608 918.847 131.438 918.664 132.341 917.825 131.438 916.986 131.608 916.802 132.708 917.825 131.608 918.847" style="fill:#231f20"/>
		<line style="fill:none;stroke:#231f20;stroke-miterlimit:10;stroke-width:0.400000005960465px" x1="85.61515" x2="336.40213" y1="913.94934" y2="913.94934"/>
		<line style="fill:none;stroke:#231f20;stroke-miterlimit:10;stroke-width:0.25px" x1="137.8533" x2="185.53287" y1="917.82494" y2="917.82494"/>
		<polygon points="184.704 918.847 184.534 918.664 185.437 917.825 184.534 916.986 184.704 916.802 185.804 917.825 184.704 918.847" style="fill:#231f20"/>
		<line style="fill:none;stroke:#231f20;stroke-miterlimit:10;stroke-width:0.25px" x1="191.54324" x2="239.22281" y1="917.82494" y2="917.82494"/>
		<polygon points="238.394 918.847 238.224 918.664 239.127 917.825 238.224 916.986 238.394 916.802 239.494 917.825 238.394 918.847" style="fill:#231f20"/>
		<text style="font-size:4px;fill:#231f20;font-family:CourierNewPS-BoldItalicMT, Courier New;font-weight:700;font-style:italic" transform="translate(463.45325 918.91991)">ww(u)</text>
		<text style="font-size:4px;fill:#231f20;font-family:CourierNewPS-BoldItalicMT, Courier New;font-weight:700;font-style:italic" transform="translate(514.70325 918.91991)">u</text>
		<text style="font-size:4px;fill:#231f20;font-family:CourierNewPS-BoldItalicMT, Courier New;font-weight:700;font-style:italic" transform="translate(566.99438 918.91991)">o</text>
		<text style="font-size:4px;fill:#231f20;font-family:CourierNewPS-BoldItalicMT, Courier New;font-weight:700;font-style:italic" transform="translate(518.99438 921.70525)">(o)</text>
		<text style="font-size:4px;fill:#231f20;font-family:CourierNewPS-BoldItalicMT, Courier New;font-weight:700;font-style:italic" transform="translate(569.32764 921.80528)">(a)</text>
		<text style="font-size:4px;fill:#231f20;font-family:CourierNewPS-BoldItalicMT, Courier New;font-weight:700;font-style:italic" transform="translate(624.49438 918.9019)">a</text>
		<circle cx="466.16801" cy="913.94934" r="0.48595" style="fill:none;stroke:#231f20;stroke-miterlimit:10;stroke-width:0.200000002980232px"/>
		<line style="fill:none;stroke:#231f20;stroke-miterlimit:10;stroke-width:0.25px" x1="475.57181" x2="513.48807" y1="917.82494" y2="917.82494"/>
		<polygon points="512.66 918.847 512.489 918.664 513.392 917.825 512.489 916.986 512.66 916.802 513.759 917.825 512.66 918.847" style="fill:#231f20"/>
		<line style="fill:none;stroke:#231f20;stroke-miterlimit:10;stroke-width:0.400000005960465px" x1="466.66666" x2="705.72" y1="913.94934" y2="913.94934"/>
		<line style="fill:none;stroke:#231f20;stroke-miterlimit:10;stroke-width:0.25px" x1="518.90481" x2="566.58426" y1="917.82494" y2="917.82494"/>
		<polygon points="565.756 918.847 565.585 918.664 566.488 917.825 565.585 916.986 565.756 916.802 566.855 917.825 565.756 918.847" style="fill:#231f20"/>
		<line style="fill:none;stroke:#231f20;stroke-miterlimit:10;stroke-width:0.25px" x1="572.59476" x2="620.2742" y1="917.82494" y2="917.82494"/>
		<polygon points="619.446 918.847 619.275 918.664 620.178 917.825 619.275 916.986 619.446 916.802 620.545 917.825 619.446 918.847" style="fill:#231f20"/>
		<line style="fill:none;stroke:#231f20;stroke-miterlimit:10;stroke-width:0.25px" x1="137.10501" x2="140.48562" y1="921.15795" y2="921.15795"/>
		<polygon points="139.657 922.18 139.487 921.997 140.39 921.158 139.487 920.319 139.657 920.136 140.757 921.158 139.657 922.18" style="fill:#231f20"/>
		<line style="fill:none;stroke:#231f20;stroke-miterlimit:10;stroke-width:0.25px" x1="188.27615" x2="191.65677" y1="921.15795" y2="921.15795"/>
		<polygon points="190.828 922.18 190.658 921.997 191.561 921.158 190.658 920.319 190.828 920.136 191.928 921.158 190.828 922.18" style="fill:#231f20"/>
		<line style="fill:none;stroke:#231f20;stroke-miterlimit:10;stroke-width:0.25px" x1="514.26004" x2="517.64065" y1="921.15795" y2="921.15795"/>
		<polygon points="516.812 922.18 516.642 921.997 517.545 921.158 516.642 920.319 516.812 920.136 517.912 921.158 516.812 922.18" style="fill:#231f20"/>
		<line style="fill:none;stroke:#231f20;stroke-miterlimit:10;stroke-width:0.25px" x1="564.68631" x2="568.06692" y1="921.15795" y2="921.15795"/>
		<polygon points="567.239 922.18 567.068 921.997 567.971 921.158 567.068 920.319 567.239 920.136 568.338 921.158 567.239 922.18" style="fill:#231f20"/>
	</g>
	<g data-name="Layer 58 sopr" id="Layer_58_sopr-16">
		<line data-name="spacer" id="spacer-17" style="fill:none;stroke:#fff;stroke-miterlimit:10;stroke-width:0.200000002980232px" x1="78.13124" x2="78.13124" y1="916.16461" y2="901.99072"/>
		<g id="player-58-sopr">
			<line style="fill:none;stroke:#58595b;stroke-miterlimit:10;stroke-width:0.200000002980232px" x1="78.03124" x2="809.47177" y1="910.31494" y2="910.31494"/>
			<line style="fill:none;stroke:#58595b;stroke-miterlimit:10;stroke-width:0.200000002980232px" x1="78.03124" x2="809.47177" y1="911.74712" y2="911.74712"/>
			<line style="fill:none;stroke:#58595b;stroke-miterlimit:10;stroke-width:0.200000002980232px" x1="78.03124" x2="809.47177" y1="913.1793" y2="913.1793"/>
			<line style="fill:none;stroke:#58595b;stroke-miterlimit:10;stroke-width:0.200000002980232px" x1="78.03124" x2="809.47177" y1="914.61148" y2="914.61148"/>
			<line style="fill:none;stroke:#58595b;stroke-miterlimit:10;stroke-width:0.200000002980232px" x1="78.03124" x2="809.47177" y1="916.04366" y2="916.04366"/>
		</g>
	</g>
	<g data-name="Layer 58 sopr" id="Layer_58_sopr-17">
		<line data-name="spacer" id="spacer-17" style="fill:none;stroke:#fff;stroke-miterlimit:10;stroke-width:0.200000002980232px" x1="78.13124" x2="78.13124" y1="916.16461" y2="901.99072"/>
		<g id="player-58-sopr">
			<line style="fill:none;stroke:#58595b;stroke-miterlimit:10;stroke-width:0.200000002980232px" x1="78.03124" x2="809.47177" y1="910.31494" y2="910.31494"/>
			<line style="fill:none;stroke:#58595b;stroke-miterlimit:10;stroke-width:0.200000002980232px" x1="78.03124" x2="809.47177" y1="911.74712" y2="911.74712"/>
			<line style="fill:none;stroke:#58595b;stroke-miterlimit:10;stroke-width:0.200000002980232px" x1="78.03124" x2="809.47177" y1="913.1793" y2="913.1793"/>
			<line style="fill:none;stroke:#58595b;stroke-miterlimit:10;stroke-width:0.200000002980232px" x1="78.03124" x2="809.47177" y1="914.61148" y2="914.61148"/>
			<line style="fill:none;stroke:#58595b;stroke-miterlimit:10;stroke-width:0.200000002980232px" x1="78.03124" x2="809.47177" y1="916.04366" y2="916.04366"/>
		</g>
		<text style="font-size:4px;fill:#231f20;font-family:CourierNewPS-BoldItalicMT, Courier New;font-weight:700;font-style:italic" transform="translate(216.57039 920.29814)">ww(u)</text>
		<text style="font-size:4px;fill:#231f20;font-family:CourierNewPS-BoldItalicMT, Courier New;font-weight:700;font-style:italic" transform="translate(339.41722 920.29772)">o</text>
		<text style="font-size:4px;fill:#231f20;font-family:Bravura, Bravura" transform="translate(217.20723 914.65642)">♯</text>
		<text style="font-size:4px;fill:#231f20;font-family:CourierNewPS-BoldItalicMT, Courier New;font-weight:700;font-style:italic" transform="translate(271.02785 920.29765)">a</text>
		<circle cx="219.2851" cy="914.52758" r="0.48595" style="fill:none;stroke:#231f20;stroke-miterlimit:10;stroke-width:0.150000005960464px"/>
		<line style="fill:none;stroke:#231f20;stroke-miterlimit:10;stroke-width:0.25px" x1="228.68899" x2="268.62955" y1="919.20287" y2="919.20287"/>
		<polygon points="267.801 920.225 267.631 920.042 268.534 919.203 267.631 918.364 267.801 918.181 268.901 919.203 267.801 920.225" style="fill:#231f20"/>
		<line style="fill:none;stroke:#231f20;stroke-miterlimit:10;stroke-width:0.25px" x1="276.72574" x2="337.52884" y1="919.20287" y2="919.20287"/>
		<polygon points="336.7 920.225 336.53 920.042 337.433 919.203 336.53 918.364 336.7 918.181 337.8 919.203 336.7 920.225" style="fill:#231f20"/>
		<line style="fill:none;stroke:#231f20;stroke-miterlimit:10;stroke-width:0.400000005960465px" x1="219.78375" x2="270.01163" y1="914.52758" y2="914.52758"/>
		<text style="font-size:4px;fill:#231f20;font-family:Bravura, Bravura" transform="translate(383.04001 914.65642)">♯</text>
		<circle cx="385.11777" cy="914.52758" r="0.48595" style="fill:none;stroke:#231f20;stroke-miterlimit:10;stroke-width:0.150000005960464px"/>
		<line style="fill:none;stroke:#231f20;stroke-miterlimit:10;stroke-width:0.400000005960465px" x1="385.61642" x2="469.63153" y1="914.52758" y2="914.52758"/>
		<circle cx="271.95983" cy="914.57309" r="0.48595" style="fill:none;stroke:#231f20;stroke-miterlimit:10;stroke-width:0.150000005960464px"/>
		<line style="fill:none;stroke:#231f20;stroke-miterlimit:10;stroke-width:0.400000005960465px" x1="272.44579" x2="324.71075" y1="914.57309" y2="914.57309"/>
		<circle cx="327.3295" cy="913.94163" r="0.48595" style="fill:none;stroke:#231f20;stroke-miterlimit:10;stroke-width:0.150000005960464px"/>
		<line style="fill:none;stroke:#231f20;stroke-miterlimit:10;stroke-width:0.400000005960465px" x1="328.18289" x2="381.44297" y1="913.94163" y2="913.94163"/>
		<text style="font-size:4px;fill:#231f20;font-family:CourierNewPS-BoldItalicMT, Courier New;font-weight:700;font-style:italic" transform="translate(274.28914 923.51354)">(o)</text>
		<text style="font-size:4px;fill:#231f20;font-family:CourierNewPS-BoldItalicMT, Courier New;font-weight:700;font-style:italic" transform="translate(227.24081 923.61351)">(a)</text>
		<line style="fill:none;stroke:#231f20;stroke-miterlimit:10;stroke-width:0.25px" x1="270.26549" x2="273.64611" y1="922.96649" y2="922.96649"/>
		<polygon points="272.818 923.989 272.647 923.806 273.55 922.967 272.647 922.128 272.818 921.945 273.917 922.967 272.818 923.989" style="fill:#231f20"/>
		<line style="fill:none;stroke:#231f20;stroke-miterlimit:10;stroke-width:0.25px" x1="223.03331" x2="226.41392" y1="922.96649" y2="922.96649"/>
		<polygon points="225.586 923.989 225.415 923.806 226.318 922.967 225.415 922.128 225.586 921.945 226.685 922.967 225.586 923.989" style="fill:#231f20"/>
	</g>
	<g data-name="Layer 58 sopr" id="Layer_58_sopr-18">
		<line data-name="spacer" id="spacer-17" style="fill:none;stroke:#fff;stroke-miterlimit:10;stroke-width:0.200000002980232px" x1="78.13124" x2="78.13124" y1="916.16461" y2="901.99072"/>
		<g id="player-58-sopr">
			<line style="fill:none;stroke:#58595b;stroke-miterlimit:10;stroke-width:0.200000002980232px" x1="78.03124" x2="809.47177" y1="910.31494" y2="910.31494"/>
			<line style="fill:none;stroke:#58595b;stroke-miterlimit:10;stroke-width:0.200000002980232px" x1="78.03124" x2="809.47177" y1="911.74712" y2="911.74712"/>
			<line style="fill:none;stroke:#58595b;stroke-miterlimit:10;stroke-width:0.200000002980232px" x1="78.03124" x2="809.47177" y1="913.1793" y2="913.1793"/>
			<line style="fill:none;stroke:#58595b;stroke-miterlimit:10;stroke-width:0.200000002980232px" x1="78.03124" x2="809.47177" y1="914.61148" y2="914.61148"/>
			<line style="fill:none;stroke:#58595b;stroke-miterlimit:10;stroke-width:0.200000002980232px" x1="78.03124" x2="809.47177" y1="916.04366" y2="916.04366"/>
		</g>
	</g>
	<g data-name="Layer 58 sopr" id="Layer_58_sopr-19">
		<line data-name="spacer" id="spacer-17" style="fill:none;stroke:#fff;stroke-miterlimit:10;stroke-width:0.200000002980232px" x1="78.13124" x2="78.13124" y1="916.16461" y2="901.99072"/>
		<g id="player-58-sopr">
			<line style="fill:none;stroke:#58595b;stroke-miterlimit:10;stroke-width:0.200000002980232px" x1="78.03124" x2="809.47177" y1="910.31494" y2="910.31494"/>
			<line style="fill:none;stroke:#58595b;stroke-miterlimit:10;stroke-width:0.200000002980232px" x1="78.03124" x2="809.47177" y1="911.74712" y2="911.74712"/>
			<line style="fill:none;stroke:#58595b;stroke-miterlimit:10;stroke-width:0.200000002980232px" x1="78.03124" x2="809.47177" y1="913.1793" y2="913.1793"/>
			<line style="fill:none;stroke:#58595b;stroke-miterlimit:10;stroke-width:0.200000002980232px" x1="78.03124" x2="809.47177" y1="914.61148" y2="914.61148"/>
			<line style="fill:none;stroke:#58595b;stroke-miterlimit:10;stroke-width:0.200000002980232px" x1="78.03124" x2="809.47177" y1="916.04366" y2="916.04366"/>
		</g>
	</g>
	<g data-name="Layer 58 sopr" id="Layer_58_sopr-20">
		<line data-name="spacer" id="spacer-17" style="fill:none;stroke:#fff;stroke-miterlimit:10;stroke-width:0.200000002980232px" x1="78.13124" x2="78.13124" y1="916.16461" y2="901.99072"/>
		<g id="player-58-sopr">
			<line style="fill:none;stroke:#58595b;stroke-miterlimit:10;stroke-width:0.200000002980232px" x1="78.03124" x2="809.47177" y1="910.31494" y2="910.31494"/>
			<line style="fill:none;stroke:#58595b;stroke-miterlimit:10;stroke-width:0.200000002980232px" x1="78.03124" x2="809.47177" y1="911.74712" y2="911.74712"/>
			<line style="fill:none;stroke:#58595b;stroke-miterlimit:10;stroke-width:0.200000002980232px" x1="78.03124" x2="809.47177" y1="913.1793" y2="913.1793"/>
			<line style="fill:none;stroke:#58595b;stroke-miterlimit:10;stroke-width:0.200000002980232px" x1="78.03124" x2="809.47177" y1="914.61148" y2="914.61148"/>
			<line style="fill:none;stroke:#58595b;stroke-miterlimit:10;stroke-width:0.200000002980232px" x1="78.03124" x2="809.47177" y1="916.04366" y2="916.04366"/>
		</g>
	</g>
</svg>
