<?xml version="1.0" encoding="utf8"?>
<!DOCTYPE svg
  PUBLIC '-//W3C//DTD SVG 1.1//EN'
  'http://www.w3.org/Graphics/SVG/1.1/DTD/svg11.dtd'>
<svg encoding="UTF-8" version="1.1" xmlns="http://www.w3.org/2000/svg">
	<g data-name="Layer 10 sopr" id="Layer_10_sopr-01">
		<line data-name="spacer" id="spacer-66" style="fill:none;stroke:#fff;stroke-miterlimit:10;stroke-width:0.200000002980232px" x1="78.13124" x2="78.13124" y1="166.87631" y2="152.70241"/>
		<g id="player-10-sopr">
			<line style="fill:none;stroke:#58595b;stroke-miterlimit:10;stroke-width:0.200000002980232px" x1="78.03124" x2="809.47177" y1="161.14759" y2="161.14759"/>
			<line style="fill:none;stroke:#58595b;stroke-miterlimit:10;stroke-width:0.200000002980232px" x1="78.03124" x2="809.47177" y1="162.57977" y2="162.57977"/>
			<line style="fill:none;stroke:#58595b;stroke-miterlimit:10;stroke-width:0.200000002980232px" x1="78.03124" x2="809.47177" y1="164.01195" y2="164.01195"/>
			<line style="fill:none;stroke:#58595b;stroke-miterlimit:10;stroke-width:0.200000002980232px" x1="78.03124" x2="809.47177" y1="165.44413" y2="165.44413"/>
			<line style="fill:none;stroke:#58595b;stroke-miterlimit:10;stroke-width:0.200000002980232px" x1="78.03124" x2="809.47177" y1="166.87631" y2="166.87631"/>
		</g>
	</g>
	<g data-name="Layer 10 sopr" id="Layer_10_sopr-02">
		<line data-name="spacer" id="spacer-66" style="fill:none;stroke:#fff;stroke-miterlimit:10;stroke-width:0.200000002980232px" x1="78.13124" x2="78.13124" y1="166.87631" y2="152.70241"/>
		<g id="player-10-sopr">
			<line style="fill:none;stroke:#58595b;stroke-miterlimit:10;stroke-width:0.200000002980232px" x1="78.03124" x2="809.47177" y1="161.14759" y2="161.14759"/>
			<line style="fill:none;stroke:#58595b;stroke-miterlimit:10;stroke-width:0.200000002980232px" x1="78.03124" x2="809.47177" y1="162.57977" y2="162.57977"/>
			<line style="fill:none;stroke:#58595b;stroke-miterlimit:10;stroke-width:0.200000002980232px" x1="78.03124" x2="809.47177" y1="164.01195" y2="164.01195"/>
			<line style="fill:none;stroke:#58595b;stroke-miterlimit:10;stroke-width:0.200000002980232px" x1="78.03124" x2="809.47177" y1="165.44413" y2="165.44413"/>
			<line style="fill:none;stroke:#58595b;stroke-miterlimit:10;stroke-width:0.200000002980232px" x1="78.03124" x2="809.47177" y1="166.87631" y2="166.87631"/>
		</g>
	</g>
	<g data-name="Layer 10 sopr" id="Layer_10_sopr-03">
		<line data-name="spacer" id="spacer-66" style="fill:none;stroke:#fff;stroke-miterlimit:10;stroke-width:0.200000002980232px" x1="78.13124" x2="78.13124" y1="166.87631" y2="152.70241"/>
		<g id="player-10-sopr">
			<line style="fill:none;stroke:#58595b;stroke-miterlimit:10;stroke-width:0.200000002980232px" x1="78.03124" x2="809.47177" y1="161.14759" y2="161.14759"/>
			<line style="fill:none;stroke:#58595b;stroke-miterlimit:10;stroke-width:0.200000002980232px" x1="78.03124" x2="809.47177" y1="162.57977" y2="162.57977"/>
			<line style="fill:none;stroke:#58595b;stroke-miterlimit:10;stroke-width:0.200000002980232px" x1="78.03124" x2="809.47177" y1="164.01195" y2="164.01195"/>
			<line style="fill:none;stroke:#58595b;stroke-miterlimit:10;stroke-width:0.200000002980232px" x1="78.03124" x2="809.47177" y1="165.44413" y2="165.44413"/>
			<line style="fill:none;stroke:#58595b;stroke-miterlimit:10;stroke-width:0.200000002980232px" x1="78.03124" x2="809.47177" y1="166.87631" y2="166.87631"/>
		</g>
	</g>
	<g data-name="Layer 10 sopr" id="Layer_10_sopr-04">
		<line data-name="spacer" id="spacer-66" style="fill:none;stroke:#fff;stroke-miterlimit:10;stroke-width:0.200000002980232px" x1="78.13124" x2="78.13124" y1="166.87631" y2="152.70241"/>
		<g id="player-10-sopr">
			<line style="fill:none;stroke:#58595b;stroke-miterlimit:10;stroke-width:0.200000002980232px" x1="78.03124" x2="809.47177" y1="161.14759" y2="161.14759"/>
			<line style="fill:none;stroke:#58595b;stroke-miterlimit:10;stroke-width:0.200000002980232px" x1="78.03124" x2="809.47177" y1="162.57977" y2="162.57977"/>
			<line style="fill:none;stroke:#58595b;stroke-miterlimit:10;stroke-width:0.200000002980232px" x1="78.03124" x2="809.47177" y1="164.01195" y2="164.01195"/>
			<line style="fill:none;stroke:#58595b;stroke-miterlimit:10;stroke-width:0.200000002980232px" x1="78.03124" x2="809.47177" y1="165.44413" y2="165.44413"/>
			<line style="fill:none;stroke:#58595b;stroke-miterlimit:10;stroke-width:0.200000002980232px" x1="78.03124" x2="809.47177" y1="166.87631" y2="166.87631"/>
		</g>
	</g>
	<g data-name="Layer 10 sopr" id="Layer_10_sopr-05">
		<line data-name="spacer" id="spacer-66" style="fill:none;stroke:#fff;stroke-miterlimit:10;stroke-width:0.200000002980232px" x1="78.13124" x2="78.13124" y1="166.87631" y2="152.70241"/>
		<g id="player-10-sopr">
			<line style="fill:none;stroke:#58595b;stroke-miterlimit:10;stroke-width:0.200000002980232px" x1="78.03124" x2="809.47177" y1="161.14759" y2="161.14759"/>
			<line style="fill:none;stroke:#58595b;stroke-miterlimit:10;stroke-width:0.200000002980232px" x1="78.03124" x2="809.47177" y1="162.57977" y2="162.57977"/>
			<line style="fill:none;stroke:#58595b;stroke-miterlimit:10;stroke-width:0.200000002980232px" x1="78.03124" x2="809.47177" y1="164.01195" y2="164.01195"/>
			<line style="fill:none;stroke:#58595b;stroke-miterlimit:10;stroke-width:0.200000002980232px" x1="78.03124" x2="809.47177" y1="165.44413" y2="165.44413"/>
			<line style="fill:none;stroke:#58595b;stroke-miterlimit:10;stroke-width:0.200000002980232px" x1="78.03124" x2="809.47177" y1="166.87631" y2="166.87631"/>
		</g>
		<text style="font-size:4px;fill:#231f20;font-family:Bravura, Bravura" transform="translate(99.14575 157.645)"></text>
		<text style="font-size:4px;fill:#231f20;font-family:Bravura, Bravura" transform="translate(220.51831 157.645)"></text>
		<line style="fill:none;stroke:#231f20;stroke-miterlimit:10;stroke-width:0.200000002980232px" x1="100.71146" x2="100.71146" y1="159.78911" y2="166.34084"/>
		<line style="fill:none;stroke:#231f20;stroke-miterlimit:10;stroke-width:0.200000002980232px" x1="222.18145" x2="222.18145" y1="159.78911" y2="166.34084"/>
		<line style="fill:none;stroke:#231f20;stroke-miterlimit:10;stroke-width:0.5px" x1="222.16458" x2="224.72332" y1="159.51712" y2="159.51712"/>
		<line style="fill:none;stroke:#231f20;stroke-miterlimit:10;stroke-width:0.5px" x1="222.05625" x2="224.61499" y1="160.30878" y2="160.30878"/>
		<circle cx="222.18145" cy="158.57773" r="0.19822" style="fill:#231f20"/>
		<text style="font-size:2px;fill:#231f20;font-family:CourierNewPS-BoldItalicMT, Courier New;font-weight:700;font-style:italic" transform="translate(84.97067 159.7896)">whispered</text>
		<text style="font-size:3px;fill:#231f20;font-family:CourierNewPS-BoldItalicMT, Courier New;font-weight:700;font-style:italic" transform="translate(98.4379 168.9558)">Shh</text>
		<line style="fill:none;stroke:#231f20;stroke-miterlimit:10;stroke-width:0.400000005960465px" x1="105.7478" x2="221.98323" y1="168.10382" y2="168.10382"/>
	</g>
	<g data-name="Layer 10 sopr" id="Layer_10_sopr-06">
		<line data-name="spacer" id="spacer-66" style="fill:none;stroke:#fff;stroke-miterlimit:10;stroke-width:0.200000002980232px" x1="78.13124" x2="78.13124" y1="166.87631" y2="152.70241"/>
		<g id="player-10-sopr">
			<line style="fill:none;stroke:#58595b;stroke-miterlimit:10;stroke-width:0.200000002980232px" x1="78.03124" x2="809.47177" y1="161.14759" y2="161.14759"/>
			<line style="fill:none;stroke:#58595b;stroke-miterlimit:10;stroke-width:0.200000002980232px" x1="78.03124" x2="809.47177" y1="162.57977" y2="162.57977"/>
			<line style="fill:none;stroke:#58595b;stroke-miterlimit:10;stroke-width:0.200000002980232px" x1="78.03124" x2="809.47177" y1="164.01195" y2="164.01195"/>
			<line style="fill:none;stroke:#58595b;stroke-miterlimit:10;stroke-width:0.200000002980232px" x1="78.03124" x2="809.47177" y1="165.44413" y2="165.44413"/>
			<line style="fill:none;stroke:#58595b;stroke-miterlimit:10;stroke-width:0.200000002980232px" x1="78.03124" x2="809.47177" y1="166.87631" y2="166.87631"/>
		</g>
	</g>
	<g data-name="Layer 10 sopr" id="Layer_10_sopr-07">
		<line data-name="spacer" id="spacer-66" style="fill:none;stroke:#fff;stroke-miterlimit:10;stroke-width:0.200000002980232px" x1="78.13124" x2="78.13124" y1="166.87631" y2="152.70241"/>
		<g id="player-10-sopr">
			<line style="fill:none;stroke:#58595b;stroke-miterlimit:10;stroke-width:0.200000002980232px" x1="78.03124" x2="809.47177" y1="161.14759" y2="161.14759"/>
			<line style="fill:none;stroke:#58595b;stroke-miterlimit:10;stroke-width:0.200000002980232px" x1="78.03124" x2="809.47177" y1="162.57977" y2="162.57977"/>
			<line style="fill:none;stroke:#58595b;stroke-miterlimit:10;stroke-width:0.200000002980232px" x1="78.03124" x2="809.47177" y1="164.01195" y2="164.01195"/>
			<line style="fill:none;stroke:#58595b;stroke-miterlimit:10;stroke-width:0.200000002980232px" x1="78.03124" x2="809.47177" y1="165.44413" y2="165.44413"/>
			<line style="fill:none;stroke:#58595b;stroke-miterlimit:10;stroke-width:0.200000002980232px" x1="78.03124" x2="809.47177" y1="166.87631" y2="166.87631"/>
		</g>
	</g>
	<g data-name="Layer 10 sopr" id="Layer_10_sopr-08">
		<line data-name="spacer" id="spacer-66" style="fill:none;stroke:#fff;stroke-miterlimit:10;stroke-width:0.200000002980232px" x1="78.13124" x2="78.13124" y1="166.87631" y2="152.70241"/>
		<g id="player-10-sopr">
			<line style="fill:none;stroke:#58595b;stroke-miterlimit:10;stroke-width:0.200000002980232px" x1="78.03124" x2="809.47177" y1="161.14759" y2="161.14759"/>
			<line style="fill:none;stroke:#58595b;stroke-miterlimit:10;stroke-width:0.200000002980232px" x1="78.03124" x2="809.47177" y1="162.57977" y2="162.57977"/>
			<line style="fill:none;stroke:#58595b;stroke-miterlimit:10;stroke-width:0.200000002980232px" x1="78.03124" x2="809.47177" y1="164.01195" y2="164.01195"/>
			<line style="fill:none;stroke:#58595b;stroke-miterlimit:10;stroke-width:0.200000002980232px" x1="78.03124" x2="809.47177" y1="165.44413" y2="165.44413"/>
			<line style="fill:none;stroke:#58595b;stroke-miterlimit:10;stroke-width:0.200000002980232px" x1="78.03124" x2="809.47177" y1="166.87631" y2="166.87631"/>
		</g>
	</g>
	<g data-name="Layer 10 sopr" id="Layer_10_sopr-09">
		<line data-name="spacer" id="spacer-66" style="fill:none;stroke:#fff;stroke-miterlimit:10;stroke-width:0.200000002980232px" x1="78.13124" x2="78.13124" y1="166.87631" y2="152.70241"/>
		<g id="player-10-sopr">
			<line style="fill:none;stroke:#58595b;stroke-miterlimit:10;stroke-width:0.200000002980232px" x1="78.03124" x2="809.47177" y1="161.14759" y2="161.14759"/>
			<line style="fill:none;stroke:#58595b;stroke-miterlimit:10;stroke-width:0.200000002980232px" x1="78.03124" x2="809.47177" y1="162.57977" y2="162.57977"/>
			<line style="fill:none;stroke:#58595b;stroke-miterlimit:10;stroke-width:0.200000002980232px" x1="78.03124" x2="809.47177" y1="164.01195" y2="164.01195"/>
			<line style="fill:none;stroke:#58595b;stroke-miterlimit:10;stroke-width:0.200000002980232px" x1="78.03124" x2="809.47177" y1="165.44413" y2="165.44413"/>
			<line style="fill:none;stroke:#58595b;stroke-miterlimit:10;stroke-width:0.200000002980232px" x1="78.03124" x2="809.47177" y1="166.87631" y2="166.87631"/>
		</g>
	</g>
	<g data-name="Layer 10 sopr" id="Layer_10_sopr-10">
		<line data-name="spacer" id="spacer-66" style="fill:none;stroke:#fff;stroke-miterlimit:10;stroke-width:0.200000002980232px" x1="78.13124" x2="78.13124" y1="166.87631" y2="152.70241"/>
		<g id="player-10-sopr">
			<line style="fill:none;stroke:#58595b;stroke-miterlimit:10;stroke-width:0.200000002980232px" x1="78.03124" x2="809.47177" y1="161.14759" y2="161.14759"/>
			<line style="fill:none;stroke:#58595b;stroke-miterlimit:10;stroke-width:0.200000002980232px" x1="78.03124" x2="809.47177" y1="162.57977" y2="162.57977"/>
			<line style="fill:none;stroke:#58595b;stroke-miterlimit:10;stroke-width:0.200000002980232px" x1="78.03124" x2="809.47177" y1="164.01195" y2="164.01195"/>
			<line style="fill:none;stroke:#58595b;stroke-miterlimit:10;stroke-width:0.200000002980232px" x1="78.03124" x2="809.47177" y1="165.44413" y2="165.44413"/>
			<line style="fill:none;stroke:#58595b;stroke-miterlimit:10;stroke-width:0.200000002980232px" x1="78.03124" x2="809.47177" y1="166.87631" y2="166.87631"/>
		</g>
	</g>
	<g data-name="Layer 10 sopr" id="Layer_10_sopr-11">
		<line data-name="spacer" id="spacer-66" style="fill:none;stroke:#fff;stroke-miterlimit:10;stroke-width:0.200000002980232px" x1="78.13124" x2="78.13124" y1="166.87631" y2="152.70241"/>
		<g id="player-10-sopr">
			<line style="fill:none;stroke:#58595b;stroke-miterlimit:10;stroke-width:0.200000002980232px" x1="78.03124" x2="809.47177" y1="161.14759" y2="161.14759"/>
			<line style="fill:none;stroke:#58595b;stroke-miterlimit:10;stroke-width:0.200000002980232px" x1="78.03124" x2="809.47177" y1="162.57977" y2="162.57977"/>
			<line style="fill:none;stroke:#58595b;stroke-miterlimit:10;stroke-width:0.200000002980232px" x1="78.03124" x2="809.47177" y1="164.01195" y2="164.01195"/>
			<line style="fill:none;stroke:#58595b;stroke-miterlimit:10;stroke-width:0.200000002980232px" x1="78.03124" x2="809.47177" y1="165.44413" y2="165.44413"/>
			<line style="fill:none;stroke:#58595b;stroke-miterlimit:10;stroke-width:0.200000002980232px" x1="78.03124" x2="809.47177" y1="166.87631" y2="166.87631"/>
		</g>
	</g>
	<g data-name="Layer 10 sopr" id="Layer_10_sopr-12">
		<line data-name="spacer" id="spacer-67" style="fill:none;stroke:#fff;stroke-miterlimit:10;stroke-width:0.200000002980232px" x1="78.13124" x2="78.13124" y1="166.87631" y2="152.70241"/>
		<g id="player-10-sopr">
			<line style="fill:none;stroke:#58595b;stroke-miterlimit:10;stroke-width:0.200000002980232px" x1="78.03124" x2="809.47177" y1="161.14759" y2="161.14759"/>
			<line style="fill:none;stroke:#58595b;stroke-miterlimit:10;stroke-width:0.200000002980232px" x1="78.03124" x2="809.47177" y1="162.57977" y2="162.57977"/>
			<line style="fill:none;stroke:#58595b;stroke-miterlimit:10;stroke-width:0.200000002980232px" x1="78.03124" x2="809.47177" y1="164.01195" y2="164.01195"/>
			<line style="fill:none;stroke:#58595b;stroke-miterlimit:10;stroke-width:0.200000002980232px" x1="78.03124" x2="809.47177" y1="165.44413" y2="165.44413"/>
			<line style="fill:none;stroke:#58595b;stroke-miterlimit:10;stroke-width:0.200000002980232px" x1="78.03124" x2="809.47177" y1="166.87631" y2="166.87631"/>
		</g>
	</g>
	<g data-name="Layer 10 sopr" id="Layer_10_sopr-13">
		<line data-name="spacer" id="spacer-66" style="fill:none;stroke:#fff;stroke-miterlimit:10;stroke-width:0.200000002980232px" x1="78.13124" x2="78.13124" y1="166.87631" y2="152.70241"/>
		<g id="player-10-sopr">
			<line style="fill:none;stroke:#58595b;stroke-miterlimit:10;stroke-width:0.200000002980232px" x1="78.03124" x2="809.47177" y1="161.14759" y2="161.14759"/>
			<line style="fill:none;stroke:#58595b;stroke-miterlimit:10;stroke-width:0.200000002980232px" x1="78.03124" x2="809.47177" y1="162.57977" y2="162.57977"/>
			<line style="fill:none;stroke:#58595b;stroke-miterlimit:10;stroke-width:0.200000002980232px" x1="78.03124" x2="809.47177" y1="164.01195" y2="164.01195"/>
			<line style="fill:none;stroke:#58595b;stroke-miterlimit:10;stroke-width:0.200000002980232px" x1="78.03124" x2="809.47177" y1="165.44413" y2="165.44413"/>
			<line style="fill:none;stroke:#58595b;stroke-miterlimit:10;stroke-width:0.200000002980232px" x1="78.03124" x2="809.47177" y1="166.87631" y2="166.87631"/>
		</g>
	</g>
	<g data-name="Layer 10 sopr" id="Layer_10_sopr-14">
		<line data-name="spacer" id="spacer-66" style="fill:none;stroke:#fff;stroke-miterlimit:10;stroke-width:0.200000002980232px" x1="78.13124" x2="78.13124" y1="166.87631" y2="152.70241"/>
		<g id="player-10-sopr">
			<line style="fill:none;stroke:#58595b;stroke-miterlimit:10;stroke-width:0.200000002980232px" x1="78.03124" x2="809.47177" y1="161.14759" y2="161.14759"/>
			<line style="fill:none;stroke:#58595b;stroke-miterlimit:10;stroke-width:0.200000002980232px" x1="78.03124" x2="809.47177" y1="162.57977" y2="162.57977"/>
			<line style="fill:none;stroke:#58595b;stroke-miterlimit:10;stroke-width:0.200000002980232px" x1="78.03124" x2="809.47177" y1="164.01195" y2="164.01195"/>
			<line style="fill:none;stroke:#58595b;stroke-miterlimit:10;stroke-width:0.200000002980232px" x1="78.03124" x2="809.47177" y1="165.44413" y2="165.44413"/>
			<line style="fill:none;stroke:#58595b;stroke-miterlimit:10;stroke-width:0.200000002980232px" x1="78.03124" x2="809.47177" y1="166.87631" y2="166.87631"/>
		</g>
	</g>
	<g data-name="Layer 10 sopr" id="Layer_10_sopr-15">
		<line data-name="spacer" id="spacer-66" style="fill:none;stroke:#fff;stroke-miterlimit:10;stroke-width:0.200000002980232px" x1="78.13124" x2="78.13124" y1="166.87631" y2="152.70241"/>
		<g id="player-10-sopr">
			<line style="fill:none;stroke:#58595b;stroke-miterlimit:10;stroke-width:0.200000002980232px" x1="78.03124" x2="809.47177" y1="161.14759" y2="161.14759"/>
			<line style="fill:none;stroke:#58595b;stroke-miterlimit:10;stroke-width:0.200000002980232px" x1="78.03124" x2="809.47177" y1="162.57977" y2="162.57977"/>
			<line style="fill:none;stroke:#58595b;stroke-miterlimit:10;stroke-width:0.200000002980232px" x1="78.03124" x2="809.47177" y1="164.01195" y2="164.01195"/>
			<line style="fill:none;stroke:#58595b;stroke-miterlimit:10;stroke-width:0.200000002980232px" x1="78.03124" x2="809.47177" y1="165.44413" y2="165.44413"/>
			<line style="fill:none;stroke:#58595b;stroke-miterlimit:10;stroke-width:0.200000002980232px" x1="78.03124" x2="809.47177" y1="166.87631" y2="166.87631"/>
		</g>
		<text style="font-size:4px;fill:#231f20;font-family:CourierNewPS-BoldItalicMT, Courier New;font-weight:700;font-style:italic" transform="translate(82.40173 169.70478)">ww(u)</text>
		<text style="font-size:4px;fill:#231f20;font-family:CourierNewPS-BoldItalicMT, Courier New;font-weight:700;font-style:italic" transform="translate(133.65173 169.70478)">u</text>
		<text style="font-size:4px;fill:#231f20;font-family:CourierNewPS-ItalicMT, Courier New;font-style:italic" transform="translate(79.45447 159.78886)">(12”)</text>
		<text style="font-size:4px;fill:#231f20;font-family:CourierNewPS-ItalicMT, Courier New;font-style:italic" transform="translate(464.37659 159.78886)">(12”)</text>
		<text style="font-size:4px;fill:#231f20;font-family:CourierNewPS-BoldItalicMT, Courier New;font-weight:700;font-style:italic" transform="translate(185.94275 169.70478)">o</text>
		<text style="font-size:4px;fill:#231f20;font-family:CourierNewPS-BoldItalicMT, Courier New;font-weight:700;font-style:italic" transform="translate(140.81067 172.49014)">(o)</text>
		<text style="font-size:4px;fill:#231f20;font-family:CourierNewPS-BoldItalicMT, Courier New;font-weight:700;font-style:italic" transform="translate(192.34985 172.59014)">(a)</text>
		<text style="font-size:4px;fill:#231f20;font-family:CourierNewPS-BoldItalicMT, Courier New;font-weight:700;font-style:italic" transform="translate(243.44275 169.68676)">a</text>
		<circle cx="85.1165" cy="164.73427" r="0.48595" style="fill:none;stroke:#231f20;stroke-miterlimit:10;stroke-width:0.200000002980232px"/>
		<line style="fill:none;stroke:#231f20;stroke-miterlimit:10;stroke-width:0.25px" x1="137.10501" x2="140.48562" y1="171.9431" y2="171.9431"/>
		<polygon points="139.657 172.966 139.487 172.782 140.39 171.943 139.487 171.104 139.657 170.921 140.757 171.943 139.657 172.966" style="fill:#231f20"/>
		<line style="fill:none;stroke:#231f20;stroke-miterlimit:10;stroke-width:0.25px" x1="188.27617" x2="191.65679" y1="171.9431" y2="171.9431"/>
		<polygon points="190.828 172.966 190.658 172.782 191.561 171.943 190.658 171.104 190.828 170.921 191.928 171.943 190.828 172.966" style="fill:#231f20"/>
		<line style="fill:none;stroke:#231f20;stroke-miterlimit:10;stroke-width:0.25px" x1="94.52042" x2="132.43668" y1="168.60985" y2="168.60985"/>
		<polygon points="131.608 169.632 131.438 169.449 132.341 168.61 131.438 167.771 131.608 167.588 132.708 168.61 131.608 169.632" style="fill:#231f20"/>
		<line style="fill:none;stroke:#231f20;stroke-miterlimit:10;stroke-width:0.400000005960465px" x1="85.61515" x2="335.55593" y1="164.73427" y2="164.73427"/>
		<line style="fill:none;stroke:#231f20;stroke-miterlimit:10;stroke-width:0.25px" x1="137.8533" x2="185.53287" y1="168.60985" y2="168.60985"/>
		<polygon points="184.704 169.632 184.534 169.449 185.437 168.61 184.534 167.771 184.704 167.588 185.804 168.61 184.704 169.632" style="fill:#231f20"/>
		<line style="fill:none;stroke:#231f20;stroke-miterlimit:10;stroke-width:0.25px" x1="191.54321" x2="239.22278" y1="168.60985" y2="168.60985"/>
		<polygon points="238.394 169.632 238.224 169.449 239.127 168.61 238.224 167.771 238.394 167.588 239.494 168.61 238.394 169.632" style="fill:#231f20"/>
		<text style="font-size:4px;fill:#231f20;font-family:CourierNewPS-BoldItalicMT, Courier New;font-weight:700;font-style:italic" transform="translate(463.45325 169.70478)">ww(u)</text>
		<text style="font-size:4px;fill:#231f20;font-family:CourierNewPS-BoldItalicMT, Courier New;font-weight:700;font-style:italic" transform="translate(514.70325 169.70478)">u</text>
		<text style="font-size:4px;fill:#231f20;font-family:CourierNewPS-BoldItalicMT, Courier New;font-weight:700;font-style:italic" transform="translate(566.99438 169.70478)">o</text>
		<text style="font-size:4px;fill:#231f20;font-family:CourierNewPS-BoldItalicMT, Courier New;font-weight:700;font-style:italic" transform="translate(518.99438 172.49014)">(o)</text>
		<text style="font-size:4px;fill:#231f20;font-family:CourierNewPS-BoldItalicMT, Courier New;font-weight:700;font-style:italic" transform="translate(569.32764 172.59014)">(a)</text>
		<text style="font-size:4px;fill:#231f20;font-family:CourierNewPS-BoldItalicMT, Courier New;font-weight:700;font-style:italic" transform="translate(624.49438 169.68676)">a</text>
		<circle cx="466.16801" cy="164.73427" r="0.48595" style="fill:none;stroke:#231f20;stroke-miterlimit:10;stroke-width:0.200000002980232px"/>
		<line style="fill:none;stroke:#231f20;stroke-miterlimit:10;stroke-width:0.25px" x1="530.10489" x2="533.4855" y1="171.9431" y2="171.9431"/>
		<polygon points="532.657 172.966 532.487 172.782 533.39 171.943 532.487 171.104 532.657 170.921 533.757 171.943 532.657 172.966" style="fill:#231f20"/>
		<line style="fill:none;stroke:#231f20;stroke-miterlimit:10;stroke-width:0.25px" x1="580.53116" x2="583.91165" y1="171.9431" y2="171.9431"/>
		<polygon points="583.083 172.966 582.913 172.782 583.816 171.943 582.913 171.104 583.083 170.921 584.183 171.943 583.083 172.966" style="fill:#231f20"/>
		<line style="fill:none;stroke:#231f20;stroke-miterlimit:10;stroke-width:0.25px" x1="475.57193" x2="513.48819" y1="168.60985" y2="168.60985"/>
		<polygon points="512.66 169.632 512.489 169.449 513.392 168.61 512.489 167.771 512.66 167.588 513.759 168.61 512.66 169.632" style="fill:#231f20"/>
		<line style="fill:none;stroke:#231f20;stroke-miterlimit:10;stroke-width:0.400000005960465px" x1="466.66666" x2="687.07014" y1="164.73427" y2="164.73427"/>
		<line style="fill:none;stroke:#231f20;stroke-miterlimit:10;stroke-width:0.25px" x1="518.90482" x2="566.58438" y1="168.60985" y2="168.60985"/>
		<polygon points="565.756 169.632 565.585 169.449 566.488 168.61 565.585 167.771 565.756 167.588 566.855 168.61 565.756 169.632" style="fill:#231f20"/>
		<line style="fill:none;stroke:#231f20;stroke-miterlimit:10;stroke-width:0.25px" x1="572.59472" x2="620.27429" y1="168.60985" y2="168.60985"/>
		<polygon points="619.446 169.632 619.275 169.449 620.178 168.61 619.275 167.771 619.446 167.588 620.545 168.61 619.446 169.632" style="fill:#231f20"/>
	</g>
	<g data-name="Layer 10 sopr" id="Layer_10_sopr-16">
		<line data-name="spacer" id="spacer-66" style="fill:none;stroke:#fff;stroke-miterlimit:10;stroke-width:0.200000002980232px" x1="78.13124" x2="78.13124" y1="166.87631" y2="152.70241"/>
		<g id="player-10-sopr">
			<line style="fill:none;stroke:#58595b;stroke-miterlimit:10;stroke-width:0.200000002980232px" x1="78.03124" x2="809.47177" y1="161.14759" y2="161.14759"/>
			<line style="fill:none;stroke:#58595b;stroke-miterlimit:10;stroke-width:0.200000002980232px" x1="78.03124" x2="809.47177" y1="162.57977" y2="162.57977"/>
			<line style="fill:none;stroke:#58595b;stroke-miterlimit:10;stroke-width:0.200000002980232px" x1="78.03124" x2="809.47177" y1="164.01195" y2="164.01195"/>
			<line style="fill:none;stroke:#58595b;stroke-miterlimit:10;stroke-width:0.200000002980232px" x1="78.03124" x2="809.47177" y1="165.44413" y2="165.44413"/>
			<line style="fill:none;stroke:#58595b;stroke-miterlimit:10;stroke-width:0.200000002980232px" x1="78.03124" x2="809.47177" y1="166.87631" y2="166.87631"/>
		</g>
	</g>
	<g data-name="Layer 10 sopr" id="Layer_10_sopr-17">
		<line data-name="spacer" id="spacer-66" style="fill:none;stroke:#fff;stroke-miterlimit:10;stroke-width:0.200000002980232px" x1="78.13124" x2="78.13124" y1="166.87631" y2="152.70241"/>
		<g id="player-10-sopr">
			<line style="fill:none;stroke:#58595b;stroke-miterlimit:10;stroke-width:0.200000002980232px" x1="78.03124" x2="809.47177" y1="161.14759" y2="161.14759"/>
			<line style="fill:none;stroke:#58595b;stroke-miterlimit:10;stroke-width:0.200000002980232px" x1="78.03124" x2="809.47177" y1="162.57977" y2="162.57977"/>
			<line style="fill:none;stroke:#58595b;stroke-miterlimit:10;stroke-width:0.200000002980232px" x1="78.03124" x2="809.47177" y1="164.01195" y2="164.01195"/>
			<line style="fill:none;stroke:#58595b;stroke-miterlimit:10;stroke-width:0.200000002980232px" x1="78.03124" x2="809.47177" y1="165.44413" y2="165.44413"/>
			<line style="fill:none;stroke:#58595b;stroke-miterlimit:10;stroke-width:0.200000002980232px" x1="78.03124" x2="809.47177" y1="166.87631" y2="166.87631"/>
		</g>
		<text style="font-size:4px;fill:#231f20;font-family:CourierNewPS-BoldItalicMT, Courier New;font-weight:700;font-style:italic" transform="translate(242.54048 169.70474)">ww(u)</text>
		<text style="font-size:4px;fill:#231f20;font-family:CourierNewPS-BoldItalicMT, Courier New;font-weight:700;font-style:italic" transform="translate(378.47519 169.70474)">o</text>
		<text style="font-size:4px;fill:#231f20;font-family:CourierNewPS-BoldItalicMT, Courier New;font-weight:700;font-style:italic" transform="translate(297.44404 169.68679)">a</text>
		<circle cx="245.25519" cy="163.93427" r="0.48595" style="fill:none;stroke:#231f20;stroke-miterlimit:10;stroke-width:0.150000005960464px"/>
		<line style="fill:none;stroke:#231f20;stroke-miterlimit:10;stroke-width:0.25px" x1="254.65909" x2="295.5618" y1="168.60985" y2="168.60985"/>
		<polygon points="294.733 169.632 294.563 169.449 295.466 168.61 294.563 167.771 294.733 167.588 295.833 168.61 294.733 169.632" style="fill:#231f20"/>
		<line style="fill:none;stroke:#231f20;stroke-miterlimit:10;stroke-width:0.25px" x1="302.6813" x2="372.1221" y1="168.60985" y2="168.60985"/>
		<polygon points="371.294 169.632 371.123 169.449 372.026 168.61 371.123 167.771 371.294 167.588 372.393 168.61 371.294 169.632" style="fill:#231f20"/>
		<line style="fill:none;stroke:#231f20;stroke-miterlimit:10;stroke-width:0.400000005960465px" x1="245.75384" x2="293.79051" y1="163.93427" y2="163.93427"/>
		<circle cx="297.92993" cy="162.57977" r="0.48595" style="fill:none;stroke:#231f20;stroke-miterlimit:10;stroke-width:0.150000005960464px"/>
		<line style="fill:none;stroke:#231f20;stroke-miterlimit:10;stroke-width:0.400000005960465px" x1="298.58717" x2="348.62385" y1="162.57977" y2="162.57977"/>
		<circle cx="353.2996" cy="163.44831" r="0.48595" style="fill:none;stroke:#231f20;stroke-miterlimit:10;stroke-width:0.150000005960464px"/>
		<line style="fill:none;stroke:#231f20;stroke-miterlimit:10;stroke-width:0.400000005960465px" x1="353.45684" x2="494.87267" y1="163.34831" y2="163.34831"/>
		<text style="font-size:4px;fill:#231f20;font-family:CourierNewPS-BoldItalicMT, Courier New;font-weight:700;font-style:italic" transform="translate(302.68136 172.81366)">(o)</text>
		<text style="font-size:4px;fill:#231f20;font-family:CourierNewPS-BoldItalicMT, Courier New;font-weight:700;font-style:italic" transform="translate(254.99933 172.91363)">(a)</text>
		<line style="fill:none;stroke:#231f20;stroke-miterlimit:10;stroke-width:0.25px" x1="298.65771" x2="302.03833" y1="172.2666" y2="172.2666"/>
		<polygon points="301.21 173.289 301.04 173.106 301.942 172.267 301.04 171.428 301.21 171.245 302.31 172.267 301.21 173.289" style="fill:#231f20"/>
		<line style="fill:none;stroke:#231f20;stroke-miterlimit:10;stroke-width:0.25px" x1="250.79182" x2="254.17244" y1="172.2666" y2="172.2666"/>
		<polygon points="253.344 173.289 253.174 173.106 254.076 172.267 253.174 171.428 253.344 171.245 254.444 172.267 253.344 173.289" style="fill:#231f20"/>
	</g>
	<g data-name="Layer 10 sopr" id="Layer_10_sopr-18">
		<line data-name="spacer" id="spacer-66" style="fill:none;stroke:#fff;stroke-miterlimit:10;stroke-width:0.200000002980232px" x1="78.13124" x2="78.13124" y1="166.87631" y2="152.70241"/>
		<g id="player-10-sopr">
			<line style="fill:none;stroke:#58595b;stroke-miterlimit:10;stroke-width:0.200000002980232px" x1="78.03124" x2="809.47177" y1="161.14759" y2="161.14759"/>
			<line style="fill:none;stroke:#58595b;stroke-miterlimit:10;stroke-width:0.200000002980232px" x1="78.03124" x2="809.47177" y1="162.57977" y2="162.57977"/>
			<line style="fill:none;stroke:#58595b;stroke-miterlimit:10;stroke-width:0.200000002980232px" x1="78.03124" x2="809.47177" y1="164.01195" y2="164.01195"/>
			<line style="fill:none;stroke:#58595b;stroke-miterlimit:10;stroke-width:0.200000002980232px" x1="78.03124" x2="809.47177" y1="165.44413" y2="165.44413"/>
			<line style="fill:none;stroke:#58595b;stroke-miterlimit:10;stroke-width:0.200000002980232px" x1="78.03124" x2="809.47177" y1="166.87631" y2="166.87631"/>
		</g>
	</g>
	<g data-name="Layer 10 sopr" id="Layer_10_sopr-19">
		<line data-name="spacer" id="spacer-66" style="fill:none;stroke:#fff;stroke-miterlimit:10;stroke-width:0.200000002980232px" x1="78.13124" x2="78.13124" y1="166.87631" y2="152.70241"/>
		<g id="player-10-sopr">
			<line style="fill:none;stroke:#58595b;stroke-miterlimit:10;stroke-width:0.200000002980232px" x1="78.03124" x2="809.47177" y1="161.14759" y2="161.14759"/>
			<line style="fill:none;stroke:#58595b;stroke-miterlimit:10;stroke-width:0.200000002980232px" x1="78.03124" x2="809.47177" y1="162.57977" y2="162.57977"/>
			<line style="fill:none;stroke:#58595b;stroke-miterlimit:10;stroke-width:0.200000002980232px" x1="78.03124" x2="809.47177" y1="164.01195" y2="164.01195"/>
			<line style="fill:none;stroke:#58595b;stroke-miterlimit:10;stroke-width:0.200000002980232px" x1="78.03124" x2="809.47177" y1="165.44413" y2="165.44413"/>
			<line style="fill:none;stroke:#58595b;stroke-miterlimit:10;stroke-width:0.200000002980232px" x1="78.03124" x2="809.47177" y1="166.87631" y2="166.87631"/>
		</g>
	</g>
	<g data-name="Layer 10 sopr" id="Layer_10_sopr-20">
		<line data-name="spacer" id="spacer-66" style="fill:none;stroke:#fff;stroke-miterlimit:10;stroke-width:0.200000002980232px" x1="78.13124" x2="78.13124" y1="166.87631" y2="152.70241"/>
		<g id="player-10-sopr">
			<line style="fill:none;stroke:#58595b;stroke-miterlimit:10;stroke-width:0.200000002980232px" x1="78.03124" x2="809.47177" y1="161.14759" y2="161.14759"/>
			<line style="fill:none;stroke:#58595b;stroke-miterlimit:10;stroke-width:0.200000002980232px" x1="78.03124" x2="809.47177" y1="162.57977" y2="162.57977"/>
			<line style="fill:none;stroke:#58595b;stroke-miterlimit:10;stroke-width:0.200000002980232px" x1="78.03124" x2="809.47177" y1="164.01195" y2="164.01195"/>
			<line style="fill:none;stroke:#58595b;stroke-miterlimit:10;stroke-width:0.200000002980232px" x1="78.03124" x2="809.47177" y1="165.44413" y2="165.44413"/>
			<line style="fill:none;stroke:#58595b;stroke-miterlimit:10;stroke-width:0.200000002980232px" x1="78.03124" x2="809.47177" y1="166.87631" y2="166.87631"/>
		</g>
	</g>
</svg>
