<?xml version="1.0" encoding="utf8"?>
<!DOCTYPE svg
  PUBLIC '-//W3C//DTD SVG 1.1//EN'
  'http://www.w3.org/Graphics/SVG/1.1/DTD/svg11.dtd'>
<svg encoding="UTF-8" version="1.1" xmlns="http://www.w3.org/2000/svg">
	<g data-name="Layer 15 fl" id="Layer_15_fl-01">
		<line data-name="spacer" id="spacer-61" style="fill:none;stroke:#fff;stroke-miterlimit:10;stroke-width:0.200000002980232px" x1="78.13124" x2="78.13124" y1="252.2959" y2="238.122"/>
		<g id="player-15-fl">
			<line style="fill:none;stroke:#58595b;stroke-miterlimit:10;stroke-width:0.200000002980232px" x1="78.03124" x2="809.47177" y1="246.58676" y2="246.58676"/>
			<line style="fill:none;stroke:#58595b;stroke-miterlimit:10;stroke-width:0.200000002980232px" x1="78.03124" x2="809.47177" y1="248.01894" y2="248.01894"/>
			<line style="fill:none;stroke:#58595b;stroke-miterlimit:10;stroke-width:0.200000002980232px" x1="78.03124" x2="809.47177" y1="249.45112" y2="249.45112"/>
			<line style="fill:none;stroke:#58595b;stroke-miterlimit:10;stroke-width:0.200000002980232px" x1="78.03124" x2="809.47177" y1="250.88331" y2="250.88331"/>
			<line style="fill:none;stroke:#58595b;stroke-miterlimit:10;stroke-width:0.200000002980232px" x1="78.03124" x2="809.47177" y1="252.31549" y2="252.31549"/>
		</g>
		<circle cx="99.6307" cy="251.57532" r="0.47422" style="fill:#231f20"/>
		<line style="fill:none;stroke:#231f20;stroke-miterlimit:10;stroke-width:0.200000002980232px" x1="99.6307" x2="99.6307" y1="244.24201" y2="251.57532"/>
		<line style="fill:none;stroke:#231f20;stroke-miterlimit:10;stroke-width:0.5px" x1="99.6307" x2="102.18944" y1="244.34201" y2="244.34201"/>
		<line style="fill:none;stroke:#231f20;stroke-miterlimit:10;stroke-width:0.5px" x1="99.52236" x2="102.0811" y1="245.13368" y2="245.13368"/>
		<circle cx="99.6307" cy="252.97327" r="0.19822" style="fill:#231f20"/>
		<text style="font-size:4px;fill:#231f20;font-family:Bravura, Bravura" transform="translate(97.87622 255.80621)"></text>
		<circle cx="302.53926" cy="251.57532" r="0.47422" style="fill:#231f20"/>
		<line style="fill:none;stroke:#231f20;stroke-miterlimit:10;stroke-width:0.200000002980232px" x1="302.53926" x2="302.53926" y1="244.24201" y2="251.57532"/>
		<line style="fill:none;stroke:#231f20;stroke-miterlimit:10;stroke-width:0.5px" x1="302.53926" x2="305.098" y1="244.34201" y2="244.34201"/>
		<line style="fill:none;stroke:#231f20;stroke-miterlimit:10;stroke-width:0.5px" x1="302.43092" x2="304.98967" y1="245.13368" y2="245.13368"/>
		<circle cx="302.53926" cy="252.97327" r="0.19822" style="fill:#231f20"/>
		<text style="font-size:4px;fill:#231f20;font-family:Bravura, Bravura" transform="translate(300.78467 255.80621)"></text>
		<circle cx="222.36487" cy="251.51193" r="0.47422" style="fill:#231f20"/>
		<line style="fill:none;stroke:#231f20;stroke-miterlimit:10;stroke-width:0.200000002980232px" x1="222.36487" x2="222.36487" y1="245.57862" y2="251.51193"/>
		<line style="fill:none;stroke:#231f20;stroke-miterlimit:10;stroke-width:0.5px" x1="222.36487" x2="224.92361" y1="245.67862" y2="245.67862"/>
		<line style="fill:none;stroke:#231f20;stroke-miterlimit:10;stroke-width:0.5px" x1="222.25653" x2="224.81527" y1="246.47029" y2="246.47029"/>
		<circle cx="222.38173" cy="244.73924" r="0.19822" style="fill:#231f20"/>
		<text style="font-size:4px;fill:#231f20;font-family:Bravura, Bravura" transform="translate(220.30249 255)"></text>
		<circle cx="446.77536" cy="252.4154" r="0.47422" style="fill:#231f20"/>
		<line style="fill:none;stroke:#231f20;stroke-miterlimit:10;stroke-width:0.200000002980232px" x1="446.77536" x2="446.77536" y1="245.08209" y2="252.4154"/>
		<line style="fill:none;stroke:#231f20;stroke-miterlimit:10;stroke-width:0.300000011920929px" x1="446.77536" x2="462.15453" y1="252.4154" y2="252.4154"/>
		<path d="M453.50453,253.49876c.25.25,8.19166,1,8.19166,1l-8.19166,1.01029" style="fill:none;stroke:#231f20;stroke-miterlimit:10;stroke-width:0.25px"/>
		<text style="font-size:4px;fill:#231f20;font-family:Bravura, Bravura" transform="translate(445.6377 255.19812)"></text>
		<text style="font-size:2px;fill:#231f20;font-family:CourierNewPS-BoldItalicMT, Courier New;font-weight:700;font-style:italic" transform="translate(441.75767 246.03967)">flz</text>
	</g>
	<g data-name="Layer 15 fl" id="Layer_15_fl-02">
		<line data-name="spacer" id="spacer-61" style="fill:none;stroke:#fff;stroke-miterlimit:10;stroke-width:0.200000002980232px" x1="78.13124" x2="78.13124" y1="252.2959" y2="238.122"/>
		<g id="player-15-fl">
			<line style="fill:none;stroke:#58595b;stroke-miterlimit:10;stroke-width:0.200000002980232px" x1="78.03124" x2="809.47177" y1="246.58676" y2="246.58676"/>
			<line style="fill:none;stroke:#58595b;stroke-miterlimit:10;stroke-width:0.200000002980232px" x1="78.03124" x2="809.47177" y1="248.01894" y2="248.01894"/>
			<line style="fill:none;stroke:#58595b;stroke-miterlimit:10;stroke-width:0.200000002980232px" x1="78.03124" x2="809.47177" y1="249.45112" y2="249.45112"/>
			<line style="fill:none;stroke:#58595b;stroke-miterlimit:10;stroke-width:0.200000002980232px" x1="78.03124" x2="809.47177" y1="250.88331" y2="250.88331"/>
			<line style="fill:none;stroke:#58595b;stroke-miterlimit:10;stroke-width:0.200000002980232px" x1="78.03124" x2="809.47177" y1="252.31549" y2="252.31549"/>
		</g>
		<circle cx="245.87666" cy="252.4154" r="0.47422" style="fill:#231f20"/>
		<line style="fill:none;stroke:#231f20;stroke-miterlimit:10;stroke-width:0.200000002980232px" x1="245.87666" x2="245.87666" y1="245.08209" y2="252.4154"/>
		<line style="fill:none;stroke:#231f20;stroke-miterlimit:10;stroke-width:0.400000005960465px" x1="245.87666" x2="261.25582" y1="252.4154" y2="252.4154"/>
		<path d="M252.60582,253.49876c.25.25,8.19167,1,8.19167,1l-8.19167,1.01029" style="fill:none;stroke:#231f20;stroke-miterlimit:10;stroke-width:0.25px"/>
		<text style="font-size:4px;fill:#231f20;font-family:Bravura, Bravura" transform="translate(244.73891 255.19812)"></text>
		<text style="font-size:2px;fill:#231f20;font-family:CourierNewPS-BoldItalicMT, Courier New;font-weight:700;font-style:italic" transform="translate(240.85896 245.93967)">flz</text>
		<circle cx="449.68215" cy="252.4154" r="0.47422" style="fill:#231f20"/>
		<line style="fill:none;stroke:#231f20;stroke-miterlimit:10;stroke-width:0.200000002980232px" x1="449.68215" x2="449.68215" y1="245.08209" y2="252.4154"/>
		<line style="fill:none;stroke:#231f20;stroke-miterlimit:10;stroke-width:0.300000011920929px" x1="449.68215" x2="465.06132" y1="252.4154" y2="252.4154"/>
		<path d="M456.41132,253.49876c.25.25,8.19167,1,8.19167,1l-8.19167,1.01029" style="fill:none;stroke:#231f20;stroke-miterlimit:10;stroke-width:0.25px"/>
		<text style="font-size:4px;fill:#231f20;font-family:Bravura, Bravura" transform="translate(448.54457 255.19812)"></text>
		<text style="font-size:2px;fill:#231f20;font-family:CourierNewPS-BoldItalicMT, Courier New;font-weight:700;font-style:italic" transform="translate(444.66444 245.93967)">flz</text>
		<circle cx="548.21" cy="251.51193" r="0.47422" style="fill:#231f20"/>
		<line style="fill:none;stroke:#231f20;stroke-miterlimit:10;stroke-width:0.200000002980232px" x1="548.21" x2="548.21" y1="245.57862" y2="251.51193"/>
		<line style="fill:none;stroke:#231f20;stroke-miterlimit:10;stroke-width:0.5px" x1="548.21" x2="550.76875" y1="245.67862" y2="245.67862"/>
		<line style="fill:none;stroke:#231f20;stroke-miterlimit:10;stroke-width:0.5px" x1="548.10167" x2="550.66041" y1="246.47029" y2="246.47029"/>
		<circle cx="548.22687" cy="244.73924" r="0.19822" style="fill:#231f20"/>
		<text style="font-size:4px;fill:#231f20;font-family:Bravura, Bravura" transform="translate(546.1476 255)"></text>
		<circle cx="342.52802" cy="249.33817" r="0.47422" style="fill:#231f20"/>
		<line style="fill:none;stroke:#231f20;stroke-miterlimit:10;stroke-width:0.200000002980232px" x1="342.52802" x2="342.52802" y1="254.17148" y2="249.33817"/>
		<line style="fill:none;stroke:#231f20;stroke-miterlimit:10;stroke-width:0.5px" x1="342.52802" x2="345.08676" y1="254.07148" y2="254.07148"/>
		<line style="fill:none;stroke:#231f20;stroke-miterlimit:10;stroke-width:0.5px" x1="342.41969" x2="344.97843" y1="253.27981" y2="253.27981"/>
		<text style="font-size:4px;fill:#231f20;font-family:Bravura, Bravura" transform="translate(338.44203 254.50366)"></text>
	</g>
	<g data-name="Layer 15 fl" id="Layer_15_fl-03">
		<line data-name="spacer" id="spacer-61" style="fill:none;stroke:#fff;stroke-miterlimit:10;stroke-width:0.200000002980232px" x1="78.13124" x2="78.13124" y1="252.2959" y2="238.122"/>
		<g id="player-15-fl">
			<line style="fill:none;stroke:#58595b;stroke-miterlimit:10;stroke-width:0.200000002980232px" x1="78.03124" x2="809.47177" y1="246.58676" y2="246.58676"/>
			<line style="fill:none;stroke:#58595b;stroke-miterlimit:10;stroke-width:0.200000002980232px" x1="78.03124" x2="809.47177" y1="248.01894" y2="248.01894"/>
			<line style="fill:none;stroke:#58595b;stroke-miterlimit:10;stroke-width:0.200000002980232px" x1="78.03124" x2="809.47177" y1="249.45112" y2="249.45112"/>
			<line style="fill:none;stroke:#58595b;stroke-miterlimit:10;stroke-width:0.200000002980232px" x1="78.03124" x2="809.47177" y1="250.88331" y2="250.88331"/>
			<line style="fill:none;stroke:#58595b;stroke-miterlimit:10;stroke-width:0.200000002980232px" x1="78.03124" x2="809.47177" y1="252.31549" y2="252.31549"/>
		</g>
		<circle cx="470.11483" cy="252.4154" r="0.47422" style="fill:#231f20"/>
		<line style="fill:none;stroke:#231f20;stroke-miterlimit:10;stroke-width:0.200000002980232px" x1="470.11483" x2="470.11483" y1="245.08209" y2="252.4154"/>
		<line style="fill:none;stroke:#231f20;stroke-miterlimit:10;stroke-width:0.300000011920929px" x1="470.11483" x2="485.494" y1="252.4154" y2="252.4154"/>
		<path d="M476.844,253.49876c.25.25,8.19167,1,8.19167,1l-8.19167,1.01029" style="fill:none;stroke:#231f20;stroke-miterlimit:10;stroke-width:0.25px"/>
		<text style="font-size:4px;fill:#231f20;font-family:Bravura, Bravura" transform="translate(468.97732 255.19812)"></text>
		<text style="font-size:2px;fill:#231f20;font-family:CourierNewPS-BoldItalicMT, Courier New;font-weight:700;font-style:italic" transform="translate(465.0972 245.93967)">flz</text>
		<circle cx="588.14169" cy="247.25632" r="0.47422" style="fill:#231f20"/>
		<line style="fill:none;stroke:#231f20;stroke-miterlimit:10;stroke-width:0.200000002980232px" x1="588.14169" x2="588.14169" y1="254.58963" y2="247.25632"/>
		<line style="fill:none;stroke:#231f20;stroke-miterlimit:10;stroke-width:0.300000011920929px" x1="588.14169" x2="613.22856" y1="247.25632" y2="247.25632"/>
		<path d="M599.87086,253.49876c.25.25,8.19167,1,8.19167,1l-8.19167,1.01029" style="fill:none;stroke:#231f20;stroke-miterlimit:10;stroke-width:0.25px"/>
		<text style="font-size:4px;fill:#231f20;font-family:Bravura, Bravura" transform="translate(585.13309 254.50378)"></text>
		<circle cx="730.04169" cy="247.25632" r="0.47422" style="fill:#231f20"/>
		<line style="fill:none;stroke:#231f20;stroke-miterlimit:10;stroke-width:0.200000002980232px" x1="730.04169" x2="730.04169" y1="254.58963" y2="247.25632"/>
		<text style="font-size:4px;fill:#231f20;font-family:Bravura, Bravura" transform="translate(727.03299 254.50378)"></text>
		<circle cx="385.97391" cy="251.57532" r="0.47422" style="fill:#231f20"/>
		<line style="fill:none;stroke:#231f20;stroke-miterlimit:10;stroke-width:0.200000002980232px" x1="385.97391" x2="385.97391" y1="244.24201" y2="251.57532"/>
		<line style="fill:none;stroke:#231f20;stroke-miterlimit:10;stroke-width:0.5px" x1="385.97391" x2="388.53265" y1="244.34201" y2="244.34201"/>
		<line style="fill:none;stroke:#231f20;stroke-miterlimit:10;stroke-width:0.5px" x1="385.86557" x2="388.42431" y1="245.13368" y2="245.13368"/>
		<circle cx="385.97391" cy="252.97327" r="0.19822" style="fill:#231f20"/>
		<text style="font-size:4px;fill:#231f20;font-family:Bravura, Bravura" transform="translate(384.21951 255.80621)"></text>
		<line style="fill:none;stroke:#231f20;stroke-miterlimit:10;stroke-width:0.5px" x1="729.91242" x2="732.57116" y1="254.69962" y2="254.69962"/>
		<line style="fill:none;stroke:#231f20;stroke-miterlimit:10;stroke-width:0.5px" x1="729.90408" x2="732.46282" y1="253.90795" y2="253.90795"/>
		<circle cx="730.13991" cy="245.6125" r="0.19822" style="fill:#231f20"/>
	</g>
	<g data-name="Layer 15 fl" id="Layer_15_fl-04">
		<line data-name="spacer" id="spacer-61" style="fill:none;stroke:#fff;stroke-miterlimit:10;stroke-width:0.200000002980232px" x1="78.13124" x2="78.13124" y1="252.2959" y2="238.122"/>
		<g id="player-15-fl">
			<line style="fill:none;stroke:#58595b;stroke-miterlimit:10;stroke-width:0.200000002980232px" x1="78.03124" x2="809.47177" y1="246.58676" y2="246.58676"/>
			<line style="fill:none;stroke:#58595b;stroke-miterlimit:10;stroke-width:0.200000002980232px" x1="78.03124" x2="809.47177" y1="248.01894" y2="248.01894"/>
			<line style="fill:none;stroke:#58595b;stroke-miterlimit:10;stroke-width:0.200000002980232px" x1="78.03124" x2="809.47177" y1="249.45112" y2="249.45112"/>
			<line style="fill:none;stroke:#58595b;stroke-miterlimit:10;stroke-width:0.200000002980232px" x1="78.03124" x2="809.47177" y1="250.88331" y2="250.88331"/>
			<line style="fill:none;stroke:#58595b;stroke-miterlimit:10;stroke-width:0.200000002980232px" x1="78.03124" x2="809.47177" y1="252.31549" y2="252.31549"/>
		</g>
		<circle cx="143.81451" cy="247.25632" r="0.47422" style="fill:#231f20"/>
		<line style="fill:none;stroke:#231f20;stroke-miterlimit:10;stroke-width:0.200000002980232px" x1="143.81451" x2="143.81451" y1="254.58963" y2="247.25632"/>
		<line style="fill:none;stroke:#231f20;stroke-miterlimit:10;stroke-width:0.400000005960465px" x1="143.81451" x2="243.25923" y1="247.25632" y2="247.25632"/>
		<path d="M230.93546,253.49876c.25.25,8.19167,1,8.19167,1l-8.19167,1.01029" style="fill:none;stroke:#231f20;stroke-miterlimit:10;stroke-width:0.25px"/>
		<text style="font-size:4px;fill:#231f20;font-family:Bravura, Bravura" transform="translate(140.80607 254.50378)"></text>
		<circle cx="364.3977" cy="247.25632" r="0.47422" style="fill:#231f20"/>
		<line style="fill:none;stroke:#231f20;stroke-miterlimit:10;stroke-width:0.200000002980232px" x1="364.3977" x2="364.3977" y1="254.58963" y2="247.25632"/>
		<line style="fill:none;stroke:#231f20;stroke-miterlimit:10;stroke-width:0.400000005960465px" x1="364.3977" x2="407.85959" y1="247.25632" y2="247.25632"/>
		<text style="font-size:4px;fill:#231f20;font-family:Bravura, Bravura" transform="translate(361.38908 254.50378)"></text>
		<circle cx="446.30077" cy="247.25632" r="0.47422" style="fill:#231f20"/>
		<line style="fill:none;stroke:#231f20;stroke-miterlimit:10;stroke-width:0.200000002980232px" x1="446.30077" x2="446.30077" y1="254.58963" y2="247.25632"/>
		<line style="fill:none;stroke:#231f20;stroke-miterlimit:10;stroke-width:0.400000005960465px" x1="446.30077" x2="489.76266" y1="247.25632" y2="247.25632"/>
		<text style="font-size:4px;fill:#231f20;font-family:Bravura, Bravura" transform="translate(443.29191 254.50378)"></text>
	</g>
	<g data-name="Layer 15 fl" id="Layer_15_fl-05">
		<line data-name="spacer" id="spacer-61" style="fill:none;stroke:#fff;stroke-miterlimit:10;stroke-width:0.200000002980232px" x1="78.13124" x2="78.13124" y1="252.2959" y2="238.122"/>
		<g id="player-15-fl">
			<line style="fill:none;stroke:#58595b;stroke-miterlimit:10;stroke-width:0.200000002980232px" x1="78.03124" x2="809.47177" y1="246.58676" y2="246.58676"/>
			<line style="fill:none;stroke:#58595b;stroke-miterlimit:10;stroke-width:0.200000002980232px" x1="78.03124" x2="809.47177" y1="248.01894" y2="248.01894"/>
			<line style="fill:none;stroke:#58595b;stroke-miterlimit:10;stroke-width:0.200000002980232px" x1="78.03124" x2="809.47177" y1="249.45112" y2="249.45112"/>
			<line style="fill:none;stroke:#58595b;stroke-miterlimit:10;stroke-width:0.200000002980232px" x1="78.03124" x2="809.47177" y1="250.88331" y2="250.88331"/>
			<line style="fill:none;stroke:#58595b;stroke-miterlimit:10;stroke-width:0.200000002980232px" x1="78.03124" x2="809.47177" y1="252.31549" y2="252.31549"/>
		</g>
		<circle cx="99.6307" cy="251.57532" r="0.47422" style="fill:#231f20"/>
		<line style="fill:none;stroke:#231f20;stroke-miterlimit:10;stroke-width:0.200000002980232px" x1="99.6307" x2="99.6307" y1="244.24201" y2="251.57532"/>
		<line style="fill:none;stroke:#231f20;stroke-miterlimit:10;stroke-width:0.5px" x1="99.6307" x2="102.18944" y1="244.34201" y2="244.34201"/>
		<line style="fill:none;stroke:#231f20;stroke-miterlimit:10;stroke-width:0.5px" x1="99.52236" x2="102.0811" y1="245.13368" y2="245.13368"/>
		<circle cx="99.6307" cy="252.97327" r="0.19822" style="fill:#231f20"/>
		<text style="font-size:4px;fill:#231f20;font-family:Bravura, Bravura" transform="translate(97.87622 255.80622)"></text>
		<circle cx="310.12722" cy="251.57532" r="0.47422" style="fill:#231f20"/>
		<line style="fill:none;stroke:#231f20;stroke-miterlimit:10;stroke-width:0.200000002980232px" x1="310.12722" x2="310.12722" y1="244.24201" y2="251.57532"/>
		<line style="fill:none;stroke:#231f20;stroke-miterlimit:10;stroke-width:0.5px" x1="310.12722" x2="312.68596" y1="244.34201" y2="244.34201"/>
		<line style="fill:none;stroke:#231f20;stroke-miterlimit:10;stroke-width:0.5px" x1="310.01889" x2="312.57763" y1="245.13368" y2="245.13368"/>
		<circle cx="310.12722" cy="252.97327" r="0.19822" style="fill:#231f20"/>
		<text style="font-size:4px;fill:#231f20;font-family:Bravura, Bravura" transform="translate(308.37256 255.80622)"></text>
		<circle cx="222.36487" cy="251.51193" r="0.47422" style="fill:#231f20"/>
		<line style="fill:none;stroke:#231f20;stroke-miterlimit:10;stroke-width:0.200000002980232px" x1="222.36487" x2="222.36487" y1="245.57862" y2="251.51193"/>
		<line style="fill:none;stroke:#231f20;stroke-miterlimit:10;stroke-width:0.5px" x1="222.36487" x2="224.92361" y1="245.67862" y2="245.67862"/>
		<line style="fill:none;stroke:#231f20;stroke-miterlimit:10;stroke-width:0.5px" x1="222.25653" x2="224.81527" y1="246.47029" y2="246.47029"/>
		<circle cx="222.38173" cy="244.73924" r="0.19822" style="fill:#231f20"/>
		<text style="font-size:4px;fill:#231f20;font-family:Bravura, Bravura" transform="translate(220.30249 255)"></text>
	</g>
	<g data-name="Layer 15 fl" id="Layer_15_fl-06">
		<line data-name="spacer" id="spacer-61" style="fill:none;stroke:#fff;stroke-miterlimit:10;stroke-width:0.200000002980232px" x1="78.13124" x2="78.13124" y1="252.2959" y2="238.122"/>
		<g id="player-15-fl">
			<line style="fill:none;stroke:#58595b;stroke-miterlimit:10;stroke-width:0.200000002980232px" x1="78.03124" x2="809.47177" y1="246.58676" y2="246.58676"/>
			<line style="fill:none;stroke:#58595b;stroke-miterlimit:10;stroke-width:0.200000002980232px" x1="78.03124" x2="809.47177" y1="248.01894" y2="248.01894"/>
			<line style="fill:none;stroke:#58595b;stroke-miterlimit:10;stroke-width:0.200000002980232px" x1="78.03124" x2="809.47177" y1="249.45112" y2="249.45112"/>
			<line style="fill:none;stroke:#58595b;stroke-miterlimit:10;stroke-width:0.200000002980232px" x1="78.03124" x2="809.47177" y1="250.88331" y2="250.88331"/>
			<line style="fill:none;stroke:#58595b;stroke-miterlimit:10;stroke-width:0.200000002980232px" x1="78.03124" x2="809.47177" y1="252.31549" y2="252.31549"/>
		</g>
		<circle cx="342.52802" cy="249.33817" r="0.47422" style="fill:#231f20"/>
		<line style="fill:none;stroke:#231f20;stroke-miterlimit:10;stroke-width:0.200000002980232px" x1="342.52802" x2="342.52802" y1="254.17148" y2="249.33817"/>
		<line style="fill:none;stroke:#231f20;stroke-miterlimit:10;stroke-width:0.5px" x1="342.52802" x2="345.08676" y1="254.07148" y2="254.07148"/>
		<line style="fill:none;stroke:#231f20;stroke-miterlimit:10;stroke-width:0.5px" x1="342.41969" x2="344.97843" y1="253.27981" y2="253.27981"/>
		<text style="font-size:4px;fill:#231f20;font-family:Bravura, Bravura" transform="translate(338.44203 254.50363)"></text>
		<circle cx="690.9587" cy="252.4154" r="0.47422" style="fill:#231f20"/>
		<line style="fill:none;stroke:#231f20;stroke-miterlimit:10;stroke-width:0.200000002980232px" x1="690.9587" x2="690.9587" y1="245.08209" y2="252.4154"/>
		<line style="fill:none;stroke:#231f20;stroke-miterlimit:10;stroke-width:0.300000011920929px" x1="690.9587" x2="706.33786" y1="252.4154" y2="252.4154"/>
		<path d="M697.68786,253.49876c.25.25,8.19167,1,8.19167,1l-8.19167,1.01029" style="fill:none;stroke:#231f20;stroke-miterlimit:10;stroke-width:0.25px"/>
		<text style="font-size:4px;fill:#231f20;font-family:Bravura, Bravura" transform="translate(689.82094 255.19812)"></text>
		<text style="font-size:2px;fill:#231f20;font-family:CourierNewPS-BoldItalicMT, Courier New;font-weight:700;font-style:italic" transform="translate(685.94093 246.03966)">flz</text>
	</g>
	<g data-name="Layer 15 fl" id="Layer_15_fl-07">
		<line data-name="spacer" id="spacer-61" style="fill:none;stroke:#fff;stroke-miterlimit:10;stroke-width:0.200000002980232px" x1="78.13124" x2="78.13124" y1="252.2959" y2="238.122"/>
		<g id="player-15-fl">
			<line style="fill:none;stroke:#58595b;stroke-miterlimit:10;stroke-width:0.200000002980232px" x1="78.03124" x2="809.47177" y1="246.58676" y2="246.58676"/>
			<line style="fill:none;stroke:#58595b;stroke-miterlimit:10;stroke-width:0.200000002980232px" x1="78.03124" x2="809.47177" y1="248.01894" y2="248.01894"/>
			<line style="fill:none;stroke:#58595b;stroke-miterlimit:10;stroke-width:0.200000002980232px" x1="78.03124" x2="809.47177" y1="249.45112" y2="249.45112"/>
			<line style="fill:none;stroke:#58595b;stroke-miterlimit:10;stroke-width:0.200000002980232px" x1="78.03124" x2="809.47177" y1="250.88331" y2="250.88331"/>
			<line style="fill:none;stroke:#58595b;stroke-miterlimit:10;stroke-width:0.200000002980232px" x1="78.03124" x2="809.47177" y1="252.31549" y2="252.31549"/>
		</g>
		<circle cx="490.79822" cy="252.4154" r="0.47422" style="fill:#231f20"/>
		<line style="fill:none;stroke:#231f20;stroke-miterlimit:10;stroke-width:0.200000002980232px" x1="490.79822" x2="490.79822" y1="245.08209" y2="252.4154"/>
		<line style="fill:none;stroke:#231f20;stroke-miterlimit:10;stroke-width:0.300000011920929px" x1="490.79822" x2="506.17739" y1="252.4154" y2="252.4154"/>
		<path d="M497.52739,253.49876c.25.25,8.19167,1,8.19167,1l-8.19167,1.01029" style="fill:none;stroke:#231f20;stroke-miterlimit:10;stroke-width:0.25px"/>
		<text style="font-size:4px;fill:#231f20;font-family:Bravura, Bravura" transform="translate(489.66092 255.19812)"></text>
		<text style="font-size:2px;fill:#231f20;font-family:CourierNewPS-BoldItalicMT, Courier New;font-weight:700;font-style:italic" transform="translate(485.78055 245.93969)">flz</text>
		<circle cx="608.82508" cy="247.25632" r="0.47422" style="fill:#231f20"/>
		<line style="fill:none;stroke:#231f20;stroke-miterlimit:10;stroke-width:0.200000002980232px" x1="608.82508" x2="608.82508" y1="254.58963" y2="247.25632"/>
		<line style="fill:none;stroke:#231f20;stroke-miterlimit:10;stroke-width:0.300000011920929px" x1="608.82508" x2="633.91195" y1="247.25632" y2="247.25632"/>
		<path d="M620.55425,253.49876c.25.25,8.19167,1,8.19167,1l-8.19167,1.01029" style="fill:none;stroke:#231f20;stroke-miterlimit:10;stroke-width:0.25px"/>
		<text style="font-size:4px;fill:#231f20;font-family:Bravura, Bravura" transform="translate(605.81668 254.50379)"></text>
		<circle cx="750.72508" cy="247.25632" r="0.47422" style="fill:#231f20"/>
		<line style="fill:none;stroke:#231f20;stroke-miterlimit:10;stroke-width:0.200000002980232px" x1="750.72508" x2="750.72508" y1="254.58963" y2="247.25632"/>
		<text style="font-size:4px;fill:#231f20;font-family:Bravura, Bravura" transform="translate(747.71658 254.50379)"></text>
		<circle cx="406.6573" cy="251.57532" r="0.47422" style="fill:#231f20"/>
		<line style="fill:none;stroke:#231f20;stroke-miterlimit:10;stroke-width:0.200000002980232px" x1="406.6573" x2="406.6573" y1="244.24201" y2="251.57532"/>
		<line style="fill:none;stroke:#231f20;stroke-miterlimit:10;stroke-width:0.5px" x1="406.6573" x2="409.21604" y1="244.34201" y2="244.34201"/>
		<line style="fill:none;stroke:#231f20;stroke-miterlimit:10;stroke-width:0.5px" x1="406.54896" x2="409.10771" y1="245.13368" y2="245.13368"/>
		<circle cx="406.6573" cy="252.97327" r="0.19822" style="fill:#231f20"/>
		<text style="font-size:4px;fill:#231f20;font-family:Bravura, Bravura" transform="translate(404.90311 255.80622)"></text>
		<line style="fill:none;stroke:#231f20;stroke-miterlimit:10;stroke-width:0.5px" x1="750.59581" x2="753.25455" y1="254.69962" y2="254.69962"/>
		<line style="fill:none;stroke:#231f20;stroke-miterlimit:10;stroke-width:0.5px" x1="750.58747" x2="753.14621" y1="253.90795" y2="253.90795"/>
		<circle cx="750.8233" cy="245.6125" r="0.19822" style="fill:#231f20"/>
	</g>
	<g data-name="Layer 15 fl" id="Layer_15_fl-08">
		<line data-name="spacer" id="spacer-61" style="fill:none;stroke:#fff;stroke-miterlimit:10;stroke-width:0.200000002980232px" x1="78.13124" x2="78.13124" y1="252.2959" y2="238.122"/>
		<g id="player-15-fl">
			<line style="fill:none;stroke:#58595b;stroke-miterlimit:10;stroke-width:0.200000002980232px" x1="78.03124" x2="809.47177" y1="246.58676" y2="246.58676"/>
			<line style="fill:none;stroke:#58595b;stroke-miterlimit:10;stroke-width:0.200000002980232px" x1="78.03124" x2="809.47177" y1="248.01894" y2="248.01894"/>
			<line style="fill:none;stroke:#58595b;stroke-miterlimit:10;stroke-width:0.200000002980232px" x1="78.03124" x2="809.47177" y1="249.45112" y2="249.45112"/>
			<line style="fill:none;stroke:#58595b;stroke-miterlimit:10;stroke-width:0.200000002980232px" x1="78.03124" x2="809.47177" y1="250.88331" y2="250.88331"/>
			<line style="fill:none;stroke:#58595b;stroke-miterlimit:10;stroke-width:0.200000002980232px" x1="78.03124" x2="809.47177" y1="252.31549" y2="252.31549"/>
		</g>
		<text style="font-size:4px;fill:#231f20;font-family:Bravura, Bravura" transform="translate(213.46184 255.25556)"></text>
		<path d="M211.38173,253.55029c-.61007.25-13.10923,1-13.10923,1l13.44246,1.01029" style="fill:none;stroke:#231f20;stroke-miterlimit:10;stroke-width:0.25px"/>
		<path d="M217.91694,253.55029c.61007.25,13.10923,1,13.10923,1l-13.44246,1.01029" style="fill:none;stroke:#231f20;stroke-miterlimit:10;stroke-width:0.25px"/>
		<circle cx="195.15052" cy="251.85268" r="0.47422" style="fill:#231f20"/>
		<line style="fill:none;stroke:#231f20;stroke-miterlimit:10;stroke-width:0.4px" x1="195.03155" x2="234.61009" y1="251.85351" y2="251.85351"/>
		<line style="fill:none;stroke:#231f20;stroke-miterlimit:10;stroke-width:0.177078908214847px" x1="195.08585" x2="195.08585" y1="243.44768" y2="251.63705"/>
		<text style="font-size:4px;fill:#231f20;font-family:Bravura, Bravura" transform="translate(111.94963 255.25556)"></text>
		<path d="M109.86958,253.55029c-.61008.25-13.10924,1-13.10924,1l13.44247,1.01029" style="fill:none;stroke:#231f20;stroke-miterlimit:10;stroke-width:0.25px"/>
		<path d="M116.40479,253.55029c.61007.25,13.10923,1,13.10923,1l-13.44247,1.01029" style="fill:none;stroke:#231f20;stroke-miterlimit:10;stroke-width:0.25px"/>
		<circle cx="93.63837" cy="251.85268" r="0.47422" style="fill:#231f20"/>
		<line style="fill:none;stroke:#231f20;stroke-miterlimit:10;stroke-width:0.4px" x1="93.51939" x2="133.09794" y1="251.85351" y2="251.85351"/>
		<line style="fill:none;stroke:#231f20;stroke-miterlimit:10;stroke-width:0.177078908214847px" x1="93.5737" x2="93.5737" y1="243.44768" y2="251.63705"/>
	</g>
	<g data-name="Layer 15 fl" id="Layer_15_fl-09">
		<line data-name="spacer" id="spacer-61" style="fill:none;stroke:#fff;stroke-miterlimit:10;stroke-width:0.200000002980232px" x1="78.13124" x2="78.13124" y1="252.2959" y2="238.122"/>
		<g id="player-15-fl">
			<line style="fill:none;stroke:#58595b;stroke-miterlimit:10;stroke-width:0.200000002980232px" x1="78.03124" x2="809.47177" y1="246.58676" y2="246.58676"/>
			<line style="fill:none;stroke:#58595b;stroke-miterlimit:10;stroke-width:0.200000002980232px" x1="78.03124" x2="809.47177" y1="248.01894" y2="248.01894"/>
			<line style="fill:none;stroke:#58595b;stroke-miterlimit:10;stroke-width:0.200000002980232px" x1="78.03124" x2="809.47177" y1="249.45112" y2="249.45112"/>
			<line style="fill:none;stroke:#58595b;stroke-miterlimit:10;stroke-width:0.200000002980232px" x1="78.03124" x2="809.47177" y1="250.88331" y2="250.88331"/>
			<line style="fill:none;stroke:#58595b;stroke-miterlimit:10;stroke-width:0.200000002980232px" x1="78.03124" x2="809.47177" y1="252.31549" y2="252.31549"/>
		</g>
		<circle cx="122.14916" cy="252.4154" r="0.47422" style="fill:#231f20"/>
		<line style="fill:none;stroke:#231f20;stroke-miterlimit:10;stroke-width:0.200000002980232px" x1="122.14916" x2="122.14916" y1="245.08209" y2="252.4154"/>
		<line style="fill:none;stroke:#231f20;stroke-miterlimit:10;stroke-width:0.300000011920929px" x1="122.14916" x2="137.52833" y1="252.4154" y2="252.4154"/>
		<path d="M128.87833,253.49876c.25.25,8.19167,1,8.19167,1l-8.19167,1.01029" style="fill:none;stroke:#231f20;stroke-miterlimit:10;stroke-width:0.25px"/>
		<text style="font-size:4px;fill:#231f20;font-family:Bravura, Bravura" transform="translate(121.01147 255.1981)"></text>
		<text style="font-size:2px;fill:#231f20;font-family:CourierNewPS-BoldItalicMT, Courier New;font-weight:700;font-style:italic" transform="translate(117.13147 245.93967)">flz</text>
	</g>
	<g data-name="Layer 15 fl" id="Layer_15_fl-10">
		<line data-name="spacer" id="spacer-61" style="fill:none;stroke:#fff;stroke-miterlimit:10;stroke-width:0.200000002980232px" x1="78.13124" x2="78.13124" y1="252.2959" y2="238.122"/>
		<g id="player-15-fl">
			<line style="fill:none;stroke:#58595b;stroke-miterlimit:10;stroke-width:0.200000002980232px" x1="78.03124" x2="809.47177" y1="246.58676" y2="246.58676"/>
			<line style="fill:none;stroke:#58595b;stroke-miterlimit:10;stroke-width:0.200000002980232px" x1="78.03124" x2="809.47177" y1="248.01894" y2="248.01894"/>
			<line style="fill:none;stroke:#58595b;stroke-miterlimit:10;stroke-width:0.200000002980232px" x1="78.03124" x2="809.47177" y1="249.45112" y2="249.45112"/>
			<line style="fill:none;stroke:#58595b;stroke-miterlimit:10;stroke-width:0.200000002980232px" x1="78.03124" x2="809.47177" y1="250.88331" y2="250.88331"/>
			<line style="fill:none;stroke:#58595b;stroke-miterlimit:10;stroke-width:0.200000002980232px" x1="78.03124" x2="809.47177" y1="252.31549" y2="252.31549"/>
		</g>
	</g>
	<g data-name="Layer 15 fl" id="Layer_15_fl-11">
		<line data-name="spacer" id="spacer-61" style="fill:none;stroke:#fff;stroke-miterlimit:10;stroke-width:0.200000002980232px" x1="78.13124" x2="78.13124" y1="252.2959" y2="238.122"/>
		<g id="player-15-fl">
			<line style="fill:none;stroke:#58595b;stroke-miterlimit:10;stroke-width:0.200000002980232px" x1="78.03124" x2="809.47177" y1="246.58676" y2="246.58676"/>
			<line style="fill:none;stroke:#58595b;stroke-miterlimit:10;stroke-width:0.200000002980232px" x1="78.03124" x2="809.47177" y1="248.01894" y2="248.01894"/>
			<line style="fill:none;stroke:#58595b;stroke-miterlimit:10;stroke-width:0.200000002980232px" x1="78.03124" x2="809.47177" y1="249.45112" y2="249.45112"/>
			<line style="fill:none;stroke:#58595b;stroke-miterlimit:10;stroke-width:0.200000002980232px" x1="78.03124" x2="809.47177" y1="250.88331" y2="250.88331"/>
			<line style="fill:none;stroke:#58595b;stroke-miterlimit:10;stroke-width:0.200000002980232px" x1="78.03124" x2="809.47177" y1="252.31549" y2="252.31549"/>
		</g>
	</g>
	<g data-name="Layer 15 fl" id="Layer_15_fl-12">
		<line data-name="spacer" id="spacer-62" style="fill:none;stroke:#fff;stroke-miterlimit:10;stroke-width:0.200000002980232px" x1="78.13124" x2="78.13124" y1="252.2959" y2="238.122"/>
		<g id="player-15-fl">
			<line style="fill:none;stroke:#58595b;stroke-miterlimit:10;stroke-width:0.200000002980232px" x1="78.03124" x2="809.47177" y1="246.58676" y2="246.58676"/>
			<line style="fill:none;stroke:#58595b;stroke-miterlimit:10;stroke-width:0.200000002980232px" x1="78.03124" x2="809.47177" y1="248.01894" y2="248.01894"/>
			<line style="fill:none;stroke:#58595b;stroke-miterlimit:10;stroke-width:0.200000002980232px" x1="78.03124" x2="809.47177" y1="249.45112" y2="249.45112"/>
			<line style="fill:none;stroke:#58595b;stroke-miterlimit:10;stroke-width:0.200000002980232px" x1="78.03124" x2="809.47177" y1="250.88331" y2="250.88331"/>
			<line style="fill:none;stroke:#58595b;stroke-miterlimit:10;stroke-width:0.200000002980232px" x1="78.03124" x2="809.47177" y1="252.31549" y2="252.31549"/>
		</g>
	</g>
	<g data-name="Layer 15 fl" id="Layer_15_fl-13">
		<line data-name="spacer" id="spacer-61" style="fill:none;stroke:#fff;stroke-miterlimit:10;stroke-width:0.200000002980232px" x1="78.13124" x2="78.13124" y1="252.2959" y2="238.122"/>
		<g id="player-15-fl">
			<line style="fill:none;stroke:#58595b;stroke-miterlimit:10;stroke-width:0.200000002980232px" x1="78.03124" x2="809.47177" y1="246.58676" y2="246.58676"/>
			<line style="fill:none;stroke:#58595b;stroke-miterlimit:10;stroke-width:0.200000002980232px" x1="78.03124" x2="809.47177" y1="248.01894" y2="248.01894"/>
			<line style="fill:none;stroke:#58595b;stroke-miterlimit:10;stroke-width:0.200000002980232px" x1="78.03124" x2="809.47177" y1="249.45112" y2="249.45112"/>
			<line style="fill:none;stroke:#58595b;stroke-miterlimit:10;stroke-width:0.200000002980232px" x1="78.03124" x2="809.47177" y1="250.88331" y2="250.88331"/>
			<line style="fill:none;stroke:#58595b;stroke-miterlimit:10;stroke-width:0.200000002980232px" x1="78.03124" x2="809.47177" y1="252.31549" y2="252.31549"/>
		</g>
	</g>
	<g data-name="Layer 15 fl" id="Layer_15_fl-14">
		<line data-name="spacer" id="spacer-61" style="fill:none;stroke:#fff;stroke-miterlimit:10;stroke-width:0.200000002980232px" x1="78.13124" x2="78.13124" y1="252.2959" y2="238.122"/>
		<g id="player-15-fl">
			<line style="fill:none;stroke:#58595b;stroke-miterlimit:10;stroke-width:0.200000002980232px" x1="78.03124" x2="809.47177" y1="246.58676" y2="246.58676"/>
			<line style="fill:none;stroke:#58595b;stroke-miterlimit:10;stroke-width:0.200000002980232px" x1="78.03124" x2="809.47177" y1="248.01894" y2="248.01894"/>
			<line style="fill:none;stroke:#58595b;stroke-miterlimit:10;stroke-width:0.200000002980232px" x1="78.03124" x2="809.47177" y1="249.45112" y2="249.45112"/>
			<line style="fill:none;stroke:#58595b;stroke-miterlimit:10;stroke-width:0.200000002980232px" x1="78.03124" x2="809.47177" y1="250.88331" y2="250.88331"/>
			<line style="fill:none;stroke:#58595b;stroke-miterlimit:10;stroke-width:0.200000002980232px" x1="78.03124" x2="809.47177" y1="252.31549" y2="252.31549"/>
		</g>
	</g>
	<g data-name="Layer 15 fl" id="Layer_15_fl-15">
		<line data-name="spacer" id="spacer-61" style="fill:none;stroke:#fff;stroke-miterlimit:10;stroke-width:0.200000002980232px" x1="78.13124" x2="78.13124" y1="252.2959" y2="238.122"/>
		<g id="player-15-fl">
			<line style="fill:none;stroke:#58595b;stroke-miterlimit:10;stroke-width:0.200000002980232px" x1="78.03124" x2="809.47177" y1="246.58676" y2="246.58676"/>
			<line style="fill:none;stroke:#58595b;stroke-miterlimit:10;stroke-width:0.200000002980232px" x1="78.03124" x2="809.47177" y1="248.01894" y2="248.01894"/>
			<line style="fill:none;stroke:#58595b;stroke-miterlimit:10;stroke-width:0.200000002980232px" x1="78.03124" x2="809.47177" y1="249.45112" y2="249.45112"/>
			<line style="fill:none;stroke:#58595b;stroke-miterlimit:10;stroke-width:0.200000002980232px" x1="78.03124" x2="809.47177" y1="250.88331" y2="250.88331"/>
			<line style="fill:none;stroke:#58595b;stroke-miterlimit:10;stroke-width:0.200000002980232px" x1="78.03124" x2="809.47177" y1="252.31549" y2="252.31549"/>
		</g>
		<circle cx="756.13646" cy="249.38805" r="0.48595" style="fill:none;stroke:#231f20;stroke-miterlimit:10;stroke-width:0.200000002980232px"/>
		<line style="fill:none;stroke:#231f20;stroke-miterlimit:10;stroke-width:0.400000005960465px" x1="756.63511" x2="809.47177" y1="249.38805" y2="249.4424"/>
		<text style="font-size:4px;fill:#231f20;font-family:Bravura, Bravura" transform="translate(753.75684 255.36302)"></text>
	</g>
	<g data-name="Layer 15 fl" id="Layer_15_fl-16">
		<line data-name="spacer" id="spacer-61" style="fill:none;stroke:#fff;stroke-miterlimit:10;stroke-width:0.200000002980232px" x1="78.13124" x2="78.13124" y1="252.2959" y2="238.122"/>
		<g id="player-15-fl">
			<line style="fill:none;stroke:#58595b;stroke-miterlimit:10;stroke-width:0.200000002980232px" x1="78.03124" x2="809.47177" y1="246.58676" y2="246.58676"/>
			<line style="fill:none;stroke:#58595b;stroke-miterlimit:10;stroke-width:0.200000002980232px" x1="78.03124" x2="809.47177" y1="248.01894" y2="248.01894"/>
			<line style="fill:none;stroke:#58595b;stroke-miterlimit:10;stroke-width:0.200000002980232px" x1="78.03124" x2="809.47177" y1="249.45112" y2="249.45112"/>
			<line style="fill:none;stroke:#58595b;stroke-miterlimit:10;stroke-width:0.200000002980232px" x1="78.03124" x2="809.47177" y1="250.88331" y2="250.88331"/>
			<line style="fill:none;stroke:#58595b;stroke-miterlimit:10;stroke-width:0.200000002980232px" x1="78.03124" x2="809.47177" y1="252.31549" y2="252.31549"/>
		</g>
		<line style="fill:none;stroke:#231f20;stroke-miterlimit:10;stroke-width:0.400000005960465px" x1="78.83124" x2="132.91638" y1="249.58805" y2="249.59262"/>
		<circle cx="781.99026" cy="249.38805" r="0.48595" style="fill:none;stroke:#231f20;stroke-miterlimit:10;stroke-width:0.200000002980232px"/>
		<line style="fill:none;stroke:#231f20;stroke-miterlimit:10;stroke-width:0.400000005960465px" x1="782.48891" x2="809.47177" y1="249.38805" y2="249.4424"/>
		<circle cx="552.07167" cy="248.68805" r="0.48595" style="fill:none;stroke:#231f20;stroke-miterlimit:10;stroke-width:0.200000002980232px"/>
		<line style="fill:none;stroke:#231f20;stroke-miterlimit:10;stroke-width:0.400000005960465px" x1="552.57032" x2="574.62635" y1="248.68805" y2="248.7424"/>
		<text style="font-size:4px;fill:#231f20;font-family:Bravura, Bravura" transform="translate(562.67836 255.29173)"></text>
		<path d="M561.28218,253.81616c-.195.25-10.7989,1-10.7989,1l10.7989,1.01029" style="fill:none;stroke:#231f20;stroke-miterlimit:10;stroke-width:0.25px"/>
		<text style="font-size:4px;fill:#231f20;font-family:Bravura, Bravura" transform="translate(792.14613 255.29173)"></text>
		<path d="M790.74978,253.81616c-.195.25-10.7989,1-10.7989,1l10.7989,1.01029" style="fill:none;stroke:#231f20;stroke-miterlimit:10;stroke-width:0.25px"/>
		<path d="M565.71785,253.81616c.195.25,10.79889,1,10.79889,1l-10.79889,1.01029" style="fill:none;stroke:#231f20;stroke-miterlimit:10;stroke-width:0.25px"/>
	</g>
	<g data-name="Layer 15 fl" id="Layer_15_fl-17">
		<line data-name="spacer" id="spacer-61" style="fill:none;stroke:#fff;stroke-miterlimit:10;stroke-width:0.200000002980232px" x1="78.13124" x2="78.13124" y1="252.2959" y2="238.122"/>
		<g id="player-15-fl">
			<line style="fill:none;stroke:#58595b;stroke-miterlimit:10;stroke-width:0.200000002980232px" x1="78.03124" x2="809.47177" y1="246.58676" y2="246.58676"/>
			<line style="fill:none;stroke:#58595b;stroke-miterlimit:10;stroke-width:0.200000002980232px" x1="78.03124" x2="809.47177" y1="248.01894" y2="248.01894"/>
			<line style="fill:none;stroke:#58595b;stroke-miterlimit:10;stroke-width:0.200000002980232px" x1="78.03124" x2="809.47177" y1="249.45112" y2="249.45112"/>
			<line style="fill:none;stroke:#58595b;stroke-miterlimit:10;stroke-width:0.200000002980232px" x1="78.03124" x2="809.47177" y1="250.88331" y2="250.88331"/>
			<line style="fill:none;stroke:#58595b;stroke-miterlimit:10;stroke-width:0.200000002980232px" x1="78.03124" x2="809.47177" y1="252.31549" y2="252.31549"/>
		</g>
		<line style="fill:none;stroke:#231f20;stroke-miterlimit:10;stroke-width:0.400000005960465px" x1="78.46296" x2="809.47177" y1="249.58805" y2="249.6424"/>
	</g>
	<g data-name="Layer 15 fl" id="Layer_15_fl-18">
		<line data-name="spacer" id="spacer-61" style="fill:none;stroke:#fff;stroke-miterlimit:10;stroke-width:0.200000002980232px" x1="78.13124" x2="78.13124" y1="252.2959" y2="238.122"/>
		<g id="player-15-fl">
			<line style="fill:none;stroke:#58595b;stroke-miterlimit:10;stroke-width:0.200000002980232px" x1="78.03124" x2="809.47177" y1="246.58676" y2="246.58676"/>
			<line style="fill:none;stroke:#58595b;stroke-miterlimit:10;stroke-width:0.200000002980232px" x1="78.03124" x2="809.47177" y1="248.01894" y2="248.01894"/>
			<line style="fill:none;stroke:#58595b;stroke-miterlimit:10;stroke-width:0.200000002980232px" x1="78.03124" x2="809.47177" y1="249.45112" y2="249.45112"/>
			<line style="fill:none;stroke:#58595b;stroke-miterlimit:10;stroke-width:0.200000002980232px" x1="78.03124" x2="809.47177" y1="250.88331" y2="250.88331"/>
			<line style="fill:none;stroke:#58595b;stroke-miterlimit:10;stroke-width:0.200000002980232px" x1="78.03124" x2="809.47177" y1="252.31549" y2="252.31549"/>
		</g>
		<circle cx="81.58153" cy="248.78354" r="0.48595" style="fill:none;stroke:#231f20;stroke-miterlimit:10;stroke-width:0.200000002980232px"/>
		<text style="font-size:4px;fill:#231f20;font-family:Bravura, Bravura" transform="translate(79.40422 248.89769)">♯</text>
		<line style="fill:none;stroke:#231f20;stroke-miterlimit:10;stroke-width:0.150000005960464px" x1="81.57213" x2="81.57213" y1="249.27398" y2="254.40245"/>
		<line style="fill:none;stroke:#231f20;stroke-miterlimit:10;stroke-width:0.400000005960465px" x1="82.06749" x2="809.47177" y1="248.86055" y2="248.86055"/>
	</g>
	<g data-name="Layer 15 fl" id="Layer_15_fl-19">
		<line data-name="spacer" id="spacer-61" style="fill:none;stroke:#fff;stroke-miterlimit:10;stroke-width:0.200000002980232px" x1="78.13124" x2="78.13124" y1="252.2959" y2="238.122"/>
		<g id="player-15-fl">
			<line style="fill:none;stroke:#58595b;stroke-miterlimit:10;stroke-width:0.200000002980232px" x1="78.03124" x2="809.47177" y1="246.58676" y2="246.58676"/>
			<line style="fill:none;stroke:#58595b;stroke-miterlimit:10;stroke-width:0.200000002980232px" x1="78.03124" x2="809.47177" y1="248.01894" y2="248.01894"/>
			<line style="fill:none;stroke:#58595b;stroke-miterlimit:10;stroke-width:0.200000002980232px" x1="78.03124" x2="809.47177" y1="249.45112" y2="249.45112"/>
			<line style="fill:none;stroke:#58595b;stroke-miterlimit:10;stroke-width:0.200000002980232px" x1="78.03124" x2="809.47177" y1="250.88331" y2="250.88331"/>
			<line style="fill:none;stroke:#58595b;stroke-miterlimit:10;stroke-width:0.200000002980232px" x1="78.03124" x2="809.47177" y1="252.31549" y2="252.31549"/>
		</g>
		<line style="fill:none;stroke:#231f20;stroke-miterlimit:10;stroke-width:0.400000005960465px" x1="79.03203" x2="507.10254" y1="248.86055" y2="248.86055"/>
	</g>
	<g data-name="Layer 15 fl" id="Layer_15_fl-20">
		<line data-name="spacer" id="spacer-61" style="fill:none;stroke:#fff;stroke-miterlimit:10;stroke-width:0.200000002980232px" x1="78.13124" x2="78.13124" y1="252.2959" y2="238.122"/>
		<g id="player-15-fl">
			<line style="fill:none;stroke:#58595b;stroke-miterlimit:10;stroke-width:0.200000002980232px" x1="78.03124" x2="809.47177" y1="246.58676" y2="246.58676"/>
			<line style="fill:none;stroke:#58595b;stroke-miterlimit:10;stroke-width:0.200000002980232px" x1="78.03124" x2="809.47177" y1="248.01894" y2="248.01894"/>
			<line style="fill:none;stroke:#58595b;stroke-miterlimit:10;stroke-width:0.200000002980232px" x1="78.03124" x2="809.47177" y1="249.45112" y2="249.45112"/>
			<line style="fill:none;stroke:#58595b;stroke-miterlimit:10;stroke-width:0.200000002980232px" x1="78.03124" x2="809.47177" y1="250.88331" y2="250.88331"/>
			<line style="fill:none;stroke:#58595b;stroke-miterlimit:10;stroke-width:0.200000002980232px" x1="78.03124" x2="809.47177" y1="252.31549" y2="252.31549"/>
		</g>
	</g>
</svg>
